<svg
  t="1774852590565"
  class="icon"
  viewBox="0 0 1024 1024"
  version="1.1"
  xmlns="http://www.w3.org/2000/svg"
  p-id="1890"
  width="256"
  height="256"
>
  <path
    d="M848.65152 28.16H161.93152A161.92 161.92 0 0 0 0.01152 192v537.6a161.92 161.92 0 0 0 161.92 161.92H377.61152l32 51.84a113.92 113.92 0 0 0 96 52.48 112 112 0 0 0 95.36-52.48l32.64-51.84h215.04a162.56 162.56 0 0 0 162.56-161.92V192A162.56 162.56 0 0 0 848.65152 28.16z m34.56 704a33.92 33.92 0 0 1-34.56 33.92H624.01152a113.28 113.28 0 0 0-80 33.28l-38.4 58.24-29.44-47.36-9.6-10.88a112 112 0 0 0-79.36-33.28H161.93152A33.92 33.92 0 0 1 128.01152 729.6V192a33.92 33.92 0 0 1 33.92-33.92h686.72a34.56 34.56 0 0 1 34.56 33.92z"
    fill="#fc8703"
    p-id="1891"
  ></path>
  <path
    d="M686.73152 338.56H553.61152V288a48 48 0 0 0-96 0v50.56H324.49152A112 112 0 0 0 212.49152 448v70.4a112 112 0 0 0 112 112h133.12v49.92a48 48 0 0 0 96 0v-49.92h133.12a112 112 0 0 0 112-112V448a112 112 0 0 0-112-109.44zM324.49152 534.4a16 16 0 0 1-16-16V448a16 16 0 0 1 16-16h133.12v102.4zM704.01152 518.4a16 16 0 0 1-16 16h-134.4V434.56h133.12A16 16 0 0 1 704.01152 448z"
    fill="#fc8703"
    p-id="1892"
  ></path>
</svg>
