<svg
  t="1774593303118"
  class="icon"
  viewBox="0 0 1024 1024"
  version="1.1"
  xmlns="http://www.w3.org/2000/svg"
  p-id="11405"
  width="256"
  height="256"
>
  <path
    d="M0 0m256 0l512 0q256 0 256 256l0 512q0 256-256 256l-512 0q-256 0-256-256l0-512q0-256 256-256Z"
    fill="#fbbf24"
    p-id="11406"
  ></path>
  <path
    d="M822.68918518 217.48670768a31.06891852 31.06891852 0 0 1 23.61237807 51.26371555l-241.0948077 281.48440178v267.9383533a31.13105635 31.13105635 0 0 1-44.86351833 27.83775099l-124.27567407-61.45432082a31.06891852 31.06891852 0 0 1-17.2743187-27.837751v-206.42189464L177.69843675 268.75042323A31.06891852 31.06891852 0 0 1 201.31081482 217.48670768h621.37837036zM473.47454103 518.54452811a31.06891852 31.06891852 0 0 1 7.45654045 20.19479704v198.59252717l62.13783704 30.6960915v-229.28861867a31.06891852 31.06891852 0 0 1 7.45654045-20.19479704l204.6820352-238.98212123H268.79250583L473.47454103 518.54452811z"
    fill="#FFFFFF"
    p-id="11407"
  ></path>
</svg>
