<svg
  t="1776822554286"
  class="icon"
  viewBox="0 0 1024 1024"
  version="1.1"
  xmlns="http://www.w3.org/2000/svg"
  p-id="2481"
  width="200"
  height="200"
>
  <path
    d="M757.38023 525.385621c137.202614 78.640523 137.202614 207.477124 1.673202 286.117647-135.529412 78.640523-356.392157 78.640523-493.594771 0s-137.202614-207.477124-1.673203-286.117647c135.529412-78.640523 356.392157-78.640523 493.594772 0z"
    fill="#E5405C"
    p-id="2482"
  ></path>
  <path
    d="M847.733171 868.392157c1.673203-1.673203 1.673203-5.019608 3.346405-6.692811 1.673203-3.346405 1.673203-5.019608 3.346405-8.366013 1.673203-5.019608 3.346405-10.039216 3.346405-15.058823V836.601307c1.673203-6.69281 1.673203-13.385621 1.673203-21.751634v-147.24183 5.019608-6.69281c0 13.385621-1.673203 26.771242-6.69281 38.48366-13.385621 38.48366-45.176471 75.294118-97.045752 105.411764-10.039216 6.69281-21.751634 11.712418-33.464052 16.732027-3.346405 1.673203-6.69281 1.673203-8.366013 3.346405-8.366013 3.346405-18.405229 6.69281-28.444445 10.039215-53.542484 18.405229-115.45098 28.444444-175.686274 28.444445-60.235294 0-122.143791-10.039216-175.686275-28.444445-10.039216-3.346405-18.405229-6.69281-28.444444-10.039215-3.346405-1.673203-6.69281-1.673203-8.366013-3.346405-11.712418-5.019608-21.751634-10.039216-33.464053-16.732027-51.869281-30.117647-83.660131-66.928105-97.045751-105.411764-5.019608-13.385621-6.69281-25.098039-6.692811-38.48366v148.915032c0 6.69281 0 13.385621 1.673203 21.751634v1.673203c1.673203 5.019608 1.673203 10.039216 3.346405 15.058823 1.673203 3.346405 1.673203 5.019608 3.346405 8.366013 1.673203 1.673203 1.673203 5.019608 3.346406 6.692811 1.673203 5.019608 3.346405 8.366013 6.69281 13.385621l1.673203 1.673202c16.732026 26.771242 43.503268 53.542484 81.986928 75.294118 65.254902 38.48366 150.588235 56.888889 235.921568 58.562092h23.424837c85.333333-1.673203 170.666667-21.751634 235.921569-58.562092 38.48366-21.751634 65.254902-48.522876 81.986928-75.294118l1.673202-1.673202c1.673203-5.019608 5.019608-8.366013 6.692811-13.385621z"
    fill="#FF5A7E"
    p-id="2483"
  ></path>
  <path
    d="M859.445589 674.300654v-6.692811c0 13.385621-1.673203 26.771242-6.69281 38.48366-11.712418 36.810458-43.503268 73.620915-92.026144 102.06536v148.915032c36.810458-21.751634 61.908497-46.849673 78.640523-73.620915l1.673202-1.673202c1.673203-3.346405 5.019608-8.366013 6.692811-13.385621 1.673203-1.673203 1.673203-5.019608 3.346405-6.692811 1.673203-3.346405 1.673203-5.019608 3.346405-8.366013 1.673203-5.019608 3.346405-10.039216 3.346405-15.058823V836.601307c1.673203-6.69281 1.673203-13.385621 1.673203-21.751634v-147.24183 6.692811z"
    fill="#FFA9C4"
    p-id="2484"
  ></path>
  <path
    d="M238.687419 793.098039C201.876962 766.326797 178.452125 736.20915 168.412909 704.418301c-5.019608-13.385621-6.69281-25.098039-6.69281-38.48366v148.915032c0 6.69281 0 13.385621 1.673202 21.751634v1.673203c1.673203 5.019608 1.673203 10.039216 3.346406 15.058823 1.673203 3.346405 1.673203 5.019608 3.346405 8.366013 1.673203 1.673203 1.673203 5.019608 3.346405 6.692811 1.673203 5.019608 3.346405 8.366013 6.692811 13.385621l1.673202 1.673202c13.385621 21.751634 31.79085 41.830065 56.888889 60.235295v-150.588236z"
    fill="#790015"
    p-id="2485"
  ></path>
  <path
    d="M238.687419 943.686275c8.366013 5.019608 15.058824 10.039216 25.098039 15.058823 60.235294 35.137255 137.202614 53.542484 217.51634 58.562092v-148.915033c-50.196078-3.346405-100.392157-11.712418-145.568627-26.771242-10.039216-3.346405-18.405229-6.69281-28.444445-10.039216-3.346405-1.673203-6.69281-1.673203-8.366013-3.346405-11.712418-5.019608-21.751634-10.039216-33.464052-16.732026-10.039216-5.019608-18.405229-11.712418-25.098039-16.732026v148.915033z"
    fill="#CF0E30"
    p-id="2486"
  ></path>
  <path
    d="M516.439053 1022.326797h-18.405229C407.680883 1020.653595 324.020752 1000.575163 260.439053 963.764706c-36.810458-21.751634-65.254902-46.849673-83.660131-76.96732l-1.673202-1.673203c-1.673203-6.69281-3.346405-10.039216-5.019608-15.058824-1.673203-3.346405-1.673203-5.019608-3.346405-8.366013v-1.673202c-1.673203-3.346405-1.673203-5.019608-3.346406-8.366013-1.673203-5.019608-3.346405-10.039216-3.346405-15.058824v-1.673202c-3.346405-6.69281-3.346405-13.385621-3.346405-20.078432V667.607843h8.366013c0 13.385621 1.673203 25.098039 6.692811 36.810458 13.385621 38.48366 45.176471 75.294118 95.372549 102.065359 10.039216 5.019608 20.078431 10.039216 31.790849 16.732026 1.673203 1.673203 3.346405 1.673203 6.692811 3.346406H307.288726c10.039216 3.346405 18.405229 6.69281 28.444445 10.039215 51.869281 18.405229 113.777778 26.771242 175.686274 28.444445 61.908497 0 122.143791-10.039216 174.013072-28.444445 10.039216-3.346405 18.405229-6.69281 28.444445-10.039215l3.346405-1.673203c1.673203 0 3.346405-1.673203 6.69281-3.346405 11.712418-5.019608 23.424837-11.712418 31.79085-16.732026 48.522876-28.444444 81.986928-63.581699 95.372549-102.06536 3.346405-11.712418 6.69281-25.098039 6.69281-36.810457h8.366013v148.915032c0 6.69281 0 13.385621-1.673202 21.751634v1.673203c-1.673203 6.69281-1.673203 11.712418-3.346405 16.732026 0 1.673203-1.673203 5.019608-3.346406 6.69281v1.673203c-1.673203 3.346405-1.673203 5.019608-3.346405 8.366013s-3.346405 8.366013-6.69281 13.385621l-5.019608 1.673203c-18.405229 30.117647-45.176471 55.215686-83.660131 76.96732-63.581699 36.810458-147.24183 58.562092-237.594771 60.235294 0-1.673203-3.346405-1.673203-5.019608-1.673203z m-6.69281-8.366013h11.712418c88.679739-1.673203 170.666667-21.751634 232.575163-58.562091 36.810458-21.751634 63.581699-45.176471 80.313726-73.620915l1.673202-1.673203c1.673203-3.346405 5.019608-8.366013 6.692811-11.712418 1.673203-1.673203 1.673203-5.019608 3.346405-6.692811v-1.673202c1.673203-1.673203 1.673203-5.019608 3.346405-6.692811 1.673203-5.019608 3.346405-10.039216 3.346406-15.058823h5.019607-3.346405c1.673203-8.366013 1.673203-13.385621 1.673203-20.078432v-103.738562c-15.058824 38.48366-48.522876 75.294118-97.045752 103.738562-10.039216 5.019608-20.078431 11.712418-33.464052 16.732027-1.673203 1.673203-3.346405 1.673203-6.692811 3.346405l-3.346405 1.673202c-10.039216 3.346405-18.405229 8.366013-28.444444 10.039216-53.542484 18.405229-115.45098 28.444444-177.359477 28.444445-63.581699 0-123.816993-10.039216-177.359477-28.444445-10.039216-3.346405-18.405229-6.69281-28.444445-10.039216l-3.346405-1.673202c-1.673203-1.673203-3.346405-1.673203-6.692811-3.346405-13.385621-5.019608-23.424837-11.712418-33.464052-16.732027-48.522876-28.444444-81.986928-63.581699-97.045752-103.738562v103.738562c0 6.69281 0 13.385621 1.673203 20.078432l-3.346405 1.673202h3.346405c1.673203 5.019608 1.673203 10.039216 3.346405 15.058824 3.346405-1.673203 5.019608 1.673203 5.019608 3.346405v1.673203c1.673203 1.673203 1.673203 5.019608 3.346405 6.69281 1.673203 3.346405 3.346405 8.366013 6.692811 11.712419l1.673202 1.673202c16.732026 28.444444 43.503268 53.542484 80.313726 73.620915 61.908497 36.810458 145.568627 56.888889 232.575163 58.562092h11.712419z"
    fill="#FF8A9E"
    p-id="2487"
  ></path>
  <path
    d="M820.961929 465.150327v192.4183c0 45.176471-30.117647 92.026144-90.352941 127.163399-120.470588 70.27451-317.908497 70.27451-440.052288 0-61.908497-35.137255-92.026144-81.986928-92.026144-128.836601V463.477124c0 46.849673 30.117647 93.699346 92.026144 128.836601 122.143791 70.27451 319.581699 70.27451 440.052288 0 60.235294-35.137255 90.352941-80.313725 90.352941-127.163398z"
    fill="#A6AEB7"
    p-id="2488"
  ></path>
  <path
    d="M817.615524 463.477124v190.745098c0 45.176471-30.117647 90.352941-88.679739 125.490196-120.470588 70.27451-314.562092 70.27451-435.03268 0-60.235294-35.137255-90.352941-80.313725-90.352941-127.163398V461.803922c0 45.176471 30.117647 92.026144 90.352941 127.163398 120.470588 70.27451 316.235294 70.27451 435.03268 0 60.235294-35.137255 88.679739-80.313725 88.679739-125.490196z"
    fill="#EA8900"
    p-id="2489"
  ></path>
  <path
    d="M817.615524 654.222222V463.477124c0 40.156863-23.424837 78.640523-68.601308 112.104575v190.745098c46.849673-33.464052 68.601307-73.620915 68.601308-112.104575z"
    fill="#FFA433"
    p-id="2490"
  ></path>
  <path
    d="M203.550164 461.803922V652.54902c0 45.176471 30.117647 92.026144 90.352941 127.163398 28.444444 16.732026 60.235294 28.444444 93.699347 36.810458V625.777778c-33.464052-8.366013-65.254902-21.751634-93.699347-36.810458-60.235294-35.137255-90.352941-81.986928-90.352941-127.163398z"
    fill="#7A3F00"
    p-id="2491"
  ></path>
  <path
    d="M757.38023 299.503268c137.202614 78.640523 137.202614 207.477124 1.673202 286.117647-135.529412 78.640523-356.392157 78.640523-493.594771 0s-137.202614-207.477124-1.673203-286.117647c135.529412-78.640523 356.392157-78.640523 493.594772 0z"
    fill="#E5405C"
    p-id="2492"
  ></path>
  <path
    d="M847.733171 644.183007c1.673203-1.673203 1.673203-5.019608 3.346405-6.692811 1.673203-3.346405 1.673203-5.019608 3.346405-8.366013 1.673203-5.019608 3.346405-10.039216 3.346405-15.058824v-1.673202c1.673203-6.69281 1.673203-13.385621 1.673203-21.751634v-147.24183 5.019608-6.692811c0 13.385621-1.673203 26.771242-6.69281 38.48366-13.385621 38.48366-45.176471 75.294118-97.045752 105.411765-10.039216 6.69281-21.751634 11.712418-33.464052 16.732026-3.346405 1.673203-6.69281 1.673203-8.366013 3.346405-8.366013 3.346405-18.405229 6.69281-28.444445 10.039216-53.542484 18.405229-115.45098 28.444444-175.686274 28.444445-60.235294 0-122.143791-10.039216-175.686275-28.444445-10.039216-3.346405-18.405229-6.69281-28.444444-10.039216-3.346405-1.673203-6.69281-1.673203-8.366013-3.346405-11.712418-5.019608-21.751634-10.039216-33.464053-16.732026-51.869281-30.117647-83.660131-66.928105-97.045751-105.411765-5.019608-13.385621-6.69281-25.098039-6.692811-38.48366v148.915033c0 6.69281 0 13.385621 1.673203 21.751634v1.673202c1.673203 5.019608 1.673203 10.039216 3.346405 15.058824 1.673203 3.346405 1.673203 5.019608 3.346405 8.366013 1.673203 1.673203 1.673203 5.019608 3.346406 6.692811 1.673203 5.019608 3.346405 8.366013 6.69281 13.38562l1.673203 1.673203c16.732026 26.771242 43.503268 53.542484 81.986928 75.294118 65.254902 38.48366 150.588235 56.888889 235.921568 58.562091h23.424837c85.333333-1.673203 170.666667-21.751634 235.921569-58.562091 38.48366-21.751634 65.254902-48.522876 81.986928-75.294118l1.673202-1.673203c1.673203-5.019608 5.019608-10.039216 6.692811-13.38562z"
    fill="#FF5A7E"
    p-id="2493"
  ></path>
  <path
    d="M238.687419 719.477124c8.366013 5.019608 15.058824 10.039216 25.098039 15.058824 60.235294 35.137255 137.202614 53.542484 217.51634 58.562091v-148.915032c-50.196078-3.346405-100.392157-11.712418-145.568627-26.771242-10.039216-3.346405-18.405229-6.69281-28.444445-10.039216-3.346405-1.673203-6.69281-1.673203-8.366013-3.346405-11.712418-5.019608-21.751634-10.039216-33.464052-16.732026-10.039216-5.019608-18.405229-11.712418-25.098039-16.732026V719.477124z"
    fill="#CF0E30"
    p-id="2494"
  ></path>
  <path
    d="M238.687419 568.888889c-36.810458-26.771242-60.235294-56.888889-70.27451-88.679739-5.019608-13.385621-6.69281-25.098039-6.69281-38.48366v148.915033c0 6.69281 0 13.385621 1.673202 21.751634v1.673202c1.673203 5.019608 1.673203 10.039216 3.346406 15.058824 1.673203 3.346405 1.673203 5.019608 3.346405 8.366013 1.673203 1.673203 1.673203 5.019608 3.346405 6.692811 1.673203 5.019608 3.346405 8.366013 6.692811 13.38562l1.673202 1.673203c13.385621 21.751634 31.79085 41.830065 56.888889 60.235294v-150.588235z"
    fill="#790015"
    p-id="2495"
  ></path>
  <path
    d="M859.445589 448.418301v-6.692811c0 13.385621-1.673203 26.771242-6.69281 38.48366-11.712418 36.810458-43.503268 73.620915-92.026144 102.06536v148.915032c36.810458-21.751634 61.908497-46.849673 78.640523-73.620915l1.673202-1.673202c1.673203-3.346405 5.019608-8.366013 6.692811-13.385621 1.673203-1.673203 1.673203-5.019608 3.346405-6.692811 1.673203-3.346405 1.673203-5.019608 3.346405-8.366013 1.673203-5.019608 3.346405-10.039216 3.346405-15.058823v-1.673203c1.673203-6.69281 1.673203-13.385621 1.673203-21.751634v-147.24183 6.692811z"
    fill="#FFA9C4"
    p-id="2496"
  ></path>
  <path
    d="M516.439053 798.117647h-18.405229C407.680883 796.444444 324.020752 774.69281 260.439053 737.882353c-36.810458-21.751634-65.254902-46.849673-83.660131-76.96732l-1.673202-1.673203c-3.346405-5.019608-5.019608-10.039216-6.692811-13.385621-1.673203-3.346405-1.673203-5.019608-3.346405-8.366013V635.816993c-1.673203-3.346405-1.673203-5.019608-3.346405-8.366013-1.673203-5.019608-3.346405-10.039216-3.346405-15.058823v-1.673203c-1.673203-6.69281-1.673203-13.385621-1.673203-20.078431v-148.915033h8.366013c0 13.385621 1.673203 25.098039 6.692811 36.810458 13.385621 38.48366 45.176471 75.294118 95.372549 102.065359 10.039216 5.019608 20.078431 10.039216 31.790849 16.732026 1.673203 1.673203 3.346405 1.673203 6.692811 3.346406l1.673202 1.673202c10.039216 3.346405 18.405229 6.69281 28.444445 10.039216 51.869281 18.405229 113.777778 26.771242 175.686274 28.444444 61.908497 0 122.143791-10.039216 174.013072-28.444444 10.039216-3.346405 18.405229-6.69281 28.444445-10.039216l3.346405-1.673202c1.673203 0 3.346405-1.673203 6.69281-3.346406 11.712418-5.019608 23.424837-11.712418 31.79085-16.732026 48.522876-28.444444 81.986928-63.581699 95.372549-102.065359 3.346405-11.712418 6.69281-25.098039 6.69281-36.810458h8.366013v148.915033c0 6.69281 0 13.385621-1.673202 21.751634v1.673202c-1.673203 6.69281-1.673203 11.712418-3.346405 16.732027 0 1.673203-1.673203 5.019608-3.346406 6.69281v1.673203c-1.673203 3.346405-1.673203 5.019608-3.346405 8.366013s-3.346405 8.366013-6.69281 13.385621H842.713563c-18.405229 30.117647-45.176471 55.215686-83.660131 76.96732-63.581699 36.810458-147.24183 58.562092-237.594771 60.235294h-5.019608z m-6.69281-8.366013h11.712418c88.679739-1.673203 170.666667-21.751634 232.575163-58.562092 36.810458-21.751634 63.581699-45.176471 80.313726-73.620915l1.673202-1.673202c1.673203-3.346405 5.019608-8.366013 6.692811-11.712418 1.673203-1.673203 1.673203-5.019608 3.346405-6.692811V635.816993c1.673203-1.673203 1.673203-5.019608 3.346405-6.69281 1.673203-5.019608 3.346405-10.039216 3.346406-15.058824h5.019607-3.346405c1.673203-8.366013 1.673203-13.385621 1.673203-20.078431v-103.738562c-15.058824 38.48366-48.522876 75.294118-97.045752 103.738562-10.039216 5.019608-20.078431 11.712418-33.464052 16.732026-1.673203 1.673203-3.346405 1.673203-6.692811 3.346405l-3.346405 1.673203c-10.039216 3.346405-18.405229 8.366013-28.444444 10.039216-53.542484 18.405229-115.45098 28.444444-177.359477 28.444444-63.581699 0-123.816993-10.039216-177.359477-28.444444-10.039216-3.346405-18.405229-6.69281-28.444445-10.039216l-3.346405-1.673203c-1.673203-1.673203-3.346405-1.673203-6.692811-3.346405-13.385621-5.019608-23.424837-11.712418-33.464052-16.732026-48.522876-28.444444-81.986928-63.581699-97.045752-103.738562v103.738562c0 6.69281 0 13.385621 1.673203 20.078431l-3.346405 1.673203h3.346405c1.673203 5.019608 1.673203 10.039216 3.346405 15.058824 0 1.673203 1.673203 5.019608 3.346406 6.69281L173.432517 635.816993c1.673203 1.673203 1.673203 5.019608 3.346405 6.692811 1.673203 3.346405 3.346405 8.366013 6.692811 11.712418l1.673202 1.673203c16.732026 28.444444 43.503268 53.542484 80.313726 73.620915 61.908497 36.810458 145.568627 56.888889 232.575163 58.562091h11.712419z"
    fill="#FF8A9E"
    p-id="2497"
  ></path>
  <path
    d="M820.961929 229.228758v192.418301c0 45.176471-30.117647 92.026144-90.352941 127.163399-120.470588 70.27451-317.908497 70.27451-440.052288 0-61.908497-35.137255-92.026144-81.986928-92.026144-128.836602V227.555556c0 46.849673 30.117647 93.699346 92.026144 128.836601 122.143791 70.27451 319.581699 70.27451 440.052288 0 60.235294-36.810458 90.352941-81.986928 90.352941-127.163399z"
    fill="#A6AEB7"
    p-id="2498"
  ></path>
  <path
    d="M817.615524 225.882353v190.745098c0 45.176471-30.117647 90.352941-88.679739 125.490196-120.470588 70.27451-314.562092 70.27451-435.03268 0-60.235294-35.137255-90.352941-80.313725-90.352941-127.163399V224.20915c0 45.176471 30.117647 92.026144 90.352941 127.163399 120.470588 70.27451 316.235294 70.27451 435.03268 0 60.235294-35.137255 88.679739-80.313725 88.679739-125.490196z"
    fill="#EA8900"
    p-id="2499"
  ></path>
  <path
    d="M817.615524 416.627451V225.882353c0 40.156863-23.424837 78.640523-68.601308 112.104575v190.745098c46.849673-31.79085 68.601307-71.947712 68.601308-112.104575z"
    fill="#FFA433"
    p-id="2500"
  ></path>
  <path
    d="M203.550164 224.20915v190.745098c0 45.176471 30.117647 92.026144 90.352941 127.163399 28.444444 16.732026 60.235294 28.444444 93.699347 36.810458V388.183007c-33.464052-8.366013-65.254902-21.751634-93.699347-36.810458-60.235294-35.137255-90.352941-80.313725-90.352941-127.163399z"
    fill="#7A3F00"
    p-id="2501"
  ></path>
  <path
    d="M757.38023 63.581699c135.529412 78.640523 137.202614 207.477124 1.673202 286.117647-135.529412 78.640523-356.392157 78.640523-493.594771 0S126.582844 142.222222 262.112256 63.581699c137.202614-78.640523 358.065359-78.640523 495.267974 0z"
    fill="#E5405C"
    p-id="2502"
  ></path>
  <path
    d="M722.242975 83.660131C605.118792 15.058824 414.373694 15.058824 297.249511 83.660131s-117.124183 179.03268 1.673202 245.960784c118.797386 68.601307 307.869281 68.601307 426.666667 0C841.04036 261.019608 841.04036 150.588235 722.242975 83.660131zM708.857354 321.254902c-108.75817 63.581699-286.117647 63.581699-394.875817 0S203.550164 155.607843 312.308334 92.026144c108.75817-63.581699 286.117647-63.581699 394.875817 0s110.431373 165.647059 1.673203 229.228758z"
    fill="#EA8900"
    p-id="2503"
  ></path>
  <path
    d="M722.242975 83.660131c-85.333333-50.196078-210.823529-63.581699-316.235294-40.156863 103.738562-20.078431 224.20915-5.019608 306.196078 41.830065 118.797386 68.601307 118.797386 179.03268 1.673203 245.960785-31.79085 18.405229-68.601307 31.79085-108.75817 40.156862 43.503268-8.366013 85.333333-21.751634 118.797385-41.830065 117.124183-68.601307 117.124183-179.03268-1.673202-245.960784zM313.981537 321.254902c-108.75817-63.581699-110.431373-165.647059-1.673203-229.228758 30.117647-16.732026 63.581699-30.117647 100.392157-36.810458-40.156863 8.366013-78.640523 20.078431-110.431373 40.156863-108.75817 63.581699-108.75817 165.647059 1.673203 229.228758 80.313725 46.849673 195.764706 58.562092 294.48366 36.810458-97.045752 16.732026-207.477124 3.346405-284.444444-40.156863z"
    fill="#7A3F00"
    p-id="2504"
  ></path>
  <path
    d="M847.733171 406.588235c1.673203-1.673203 1.673203-5.019608 3.346405-6.69281 1.673203-3.346405 1.673203-5.019608 3.346405-8.366013 1.673203-5.019608 3.346405-10.039216 3.346405-15.058824v-1.673202c1.673203-6.69281 1.673203-13.385621 1.673203-21.751634v-147.24183 5.019607-6.69281c0 13.385621-1.673203 26.771242-6.69281 38.48366-13.385621 38.48366-45.176471 75.294118-97.045752 105.411765-10.039216 6.69281-21.751634 11.712418-33.464052 16.732026-3.346405 1.673203-6.69281 1.673203-8.366013 3.346405-8.366013 3.346405-18.405229 6.69281-28.444445 10.039216-53.542484 18.405229-115.45098 28.444444-175.686274 28.444444-60.235294 0-122.143791-10.039216-175.686275-28.444444-10.039216-3.346405-18.405229-6.69281-28.444444-10.039216-3.346405-1.673203-6.69281-1.673203-8.366013-3.346405-11.712418-5.019608-21.751634-10.039216-33.464053-16.732026-51.869281-30.117647-83.660131-66.928105-97.045751-105.411765-5.019608-13.385621-6.69281-25.098039-6.692811-38.48366v148.915033c0 6.69281 0 13.385621 1.673203 21.751634v1.673202c1.673203 5.019608 1.673203 10.039216 3.346405 15.058824 1.673203 3.346405 1.673203 5.019608 3.346405 8.366013 3.346405 1.673203 3.346405 5.019608 5.019608 6.69281 1.673203 5.019608 3.346405 8.366013 6.692811 13.385621l1.673202 1.673203c16.732026 26.771242 43.503268 53.542484 81.986928 75.294117 65.254902 38.48366 150.588235 56.888889 235.921569 58.562092h23.424837c85.333333 0 168.993464-20.078431 234.248366-58.562092 38.48366-21.751634 65.254902-48.522876 81.986928-75.294117l1.673202-1.673203c1.673203-5.019608 5.019608-8.366013 6.692811-13.385621z"
    fill="#FF5A7E"
    p-id="2505"
  ></path>
  <path
    d="M238.687419 332.96732c-36.810458-26.771242-60.235294-56.888889-70.27451-88.679738-5.019608-13.385621-6.69281-25.098039-6.69281-38.48366v148.915032c0 6.69281 0 13.385621 1.673202 21.751634v1.673203c1.673203 5.019608 1.673203 10.039216 3.346406 15.058823 1.673203 3.346405 1.673203 5.019608 3.346405 8.366013 1.673203 0 1.673203 3.346405 3.346405 5.019608 1.673203 5.019608 3.346405 8.366013 6.692811 13.385621l1.673202 1.673203c13.385621 21.751634 31.79085 41.830065 56.888889 60.235294v-148.915033z"
    fill="#790015"
    p-id="2506"
  ></path>
  <path
    d="M859.445589 212.496732v-6.69281c0 13.385621-1.673203 26.771242-6.69281 38.48366-11.712418 36.810458-43.503268 73.620915-92.026144 102.065359v148.915033c36.810458-21.751634 61.908497-46.849673 78.640523-73.620915l1.673202-1.673203c1.673203-3.346405 5.019608-8.366013 6.692811-13.385621 1.673203-1.673203 1.673203-5.019608 3.346405-6.69281 1.673203-3.346405 1.673203-5.019608 3.346405-8.366013 1.673203-5.019608 3.346405-10.039216 3.346405-15.058824v-1.673202c1.673203-6.69281 1.673203-13.385621 1.673203-21.751634v-147.24183 6.69281z"
    fill="#FFA9C4"
    p-id="2507"
  ></path>
  <path
    d="M238.687419 481.882353c8.366013 5.019608 15.058824 10.039216 25.098039 15.058823 60.235294 35.137255 137.202614 53.542484 217.51634 58.562092v-148.915033c-50.196078-3.346405-100.392157-11.712418-145.568627-26.771242-10.039216-3.346405-18.405229-6.69281-28.444445-10.039215-3.346405-1.673203-6.69281-1.673203-8.366013-3.346405-11.712418-5.019608-21.751634-10.039216-33.464052-16.732027-10.039216-5.019608-18.405229-11.712418-25.098039-16.732026v148.915033z"
    fill="#CF0E30"
    p-id="2508"
  ></path>
  <path
    d="M516.439053 560.522876h-18.405229C407.680883 558.849673 324.020752 538.771242 260.439053 501.960784c-36.810458-21.751634-65.254902-46.849673-83.660131-76.96732l-1.673202-1.673203c-3.346405-5.019608-5.019608-10.039216-6.692811-13.38562-1.673203-3.346405-1.673203-5.019608-3.346405-8.366014v-1.673202c-1.673203-3.346405-1.673203-5.019608-3.346405-8.366013-1.673203-5.019608-3.346405-10.039216-3.346405-15.058824v-1.673202c-1.673203-8.366013-1.673203-15.058824-1.673203-21.751634v-148.915033h8.366013c0 13.385621 1.673203 25.098039 6.692811 36.810457 13.385621 38.48366 45.176471 75.294118 95.372549 102.06536 10.039216 5.019608 20.078431 10.039216 31.790849 16.732026 1.673203 1.673203 3.346405 1.673203 6.692811 3.346405l1.673202 1.673203c10.039216 3.346405 18.405229 6.69281 28.444445 10.039216 51.869281 18.405229 113.777778 26.771242 175.686274 28.444444 61.908497 0 122.143791-10.039216 174.013072-28.444444 10.039216-3.346405 18.405229-6.69281 28.444445-10.039216l3.346405-1.673203c1.673203 0 3.346405-1.673203 6.69281-3.346405 11.712418-5.019608 23.424837-11.712418 31.79085-16.732026 48.522876-28.444444 81.986928-63.581699 95.372549-102.06536 3.346405-11.712418 6.69281-25.098039 6.69281-36.810457h8.366013v148.915033c0 6.69281 0 13.385621-1.673202 21.751634v1.673202c-1.673203 6.69281-1.673203 11.712418-3.346405 16.732026 0 1.673203-1.673203 5.019608-3.346406 6.692811v1.673202c-1.673203 3.346405-1.673203 5.019608-3.346405 8.366014s-3.346405 8.366013-6.69281 13.38562l-5.019608 1.673203c-18.405229 30.117647-45.176471 55.215686-83.660131 76.96732-63.581699 36.810458-147.24183 58.562092-237.594771 60.235294 0-1.673203-3.346405-1.673203-5.019608-1.673202z m-6.69281-8.366013h11.712418c88.679739-1.673203 170.666667-21.751634 232.575163-58.562092 36.810458-21.751634 63.581699-45.176471 80.313726-73.620915l1.673202-1.673202c1.673203-3.346405 5.019608-8.366013 6.692811-11.712419 1.673203-1.673203 1.673203-5.019608 3.346405-6.69281v-1.673203c1.673203-1.673203 1.673203-5.019608 3.346405-6.69281 1.673203-5.019608 3.346405-10.039216 3.346406-15.058824h5.019607-3.346405c1.673203-8.366013 1.673203-13.385621 1.673203-20.078431v-103.738562c-15.058824 38.48366-48.522876 75.294118-97.045752 103.738562-10.039216 5.019608-20.078431 11.712418-33.464052 16.732026-1.673203 1.673203-3.346405 1.673203-6.692811 3.346405l-3.346405 1.673203c-10.039216 3.346405-18.405229 8.366013-28.444444 10.039216-53.542484 18.405229-115.45098 28.444444-177.359477 28.444444-63.581699 0-123.816993-10.039216-177.359477-28.444444-10.039216-3.346405-18.405229-6.69281-28.444445-10.039216l-3.346405-1.673203c-1.673203-1.673203-3.346405-1.673203-6.692811-3.346405-13.385621-5.019608-23.424837-11.712418-33.464052-16.732026-48.522876-28.444444-81.986928-63.581699-97.045752-103.738562v103.738562c0 6.69281 0 13.385621 1.673203 20.078431l-3.346405 1.673203h3.346405c1.673203 5.019608 1.673203 10.039216 3.346405 15.058823 0 1.673203 1.673203 5.019608 3.346406 6.692811v1.673202c1.673203 1.673203 1.673203 5.019608 3.346405 6.692811 1.673203 3.346405 3.346405 8.366013 6.69281 11.712418l1.673203 1.673203c16.732026 28.444444 43.503268 53.542484 80.313725 73.620915 61.908497 36.810458 145.568627 56.888889 232.575164 58.562091h13.385621z"
    fill="#FF8A9E"
    p-id="2509"
  ></path>
</svg>
