<svg
  t="1776734845264"
  class="icon"
  viewBox="0 0 1024 1024"
  version="1.1"
  xmlns="http://www.w3.org/2000/svg"
  p-id="2405"
  width="200"
  height="200"
>
  <path
    d="M0 0m113.777778 0l796.444444 0q113.777778 0 113.777778 113.777778l0 796.444444q0 113.777778-113.777778 113.777778l-796.444444 0q-113.777778 0-113.777778-113.777778l0-796.444444q0-113.777778 113.777778-113.777778Z"
    fill="#333333"
    fill-opacity=".1"
    p-id="2406"
  ></path>
  <path
    d="M9.2511995 9.2511995m83.791467 0l837.914667 0q83.791467 0 83.791467 83.791467l0 837.914667q0 83.791467-83.791467 83.791467l-837.914667 0q-83.791467 0-83.791467-83.791467l0-837.914667q0-83.791467 83.791467-83.791467Z"
    fill="#333333"
    p-id="2407"
  ></path>
  <path
    d="M331.72265977 780.3840681c-65.86009342-0.54464487-98.79013939-33.22331595-98.79013939-97.95222457v-90.49478418c0-41.434881-16.04606557-63.01118241-48.13819819-64.72890862v-38.08322167c32.09213114-2.09478635 48.13819819-24.04815082 48.13819819-65.86009194v-88.23241458c0-65.48303182 32.93004597-98.49686942 98.79013939-99.08340937v41.81194113c-32.84625435 0.7541232-49.22748642 20.82217967-49.2274879 60.16227286v87.89724953c0 44.11620729-15.50142071 71.22274747-46.42047199 81.36151412v1.42445478c30.91905125 9.34274839 46.3785769 36.28170531 46.37857689 80.7749742v86.47279328c0 23.67108922 3.85440765 40.09421639 11.47943129 49.26938299 7.83450198 9.34274839 20.44511808 14.11886249 37.78995171 14.32834083v40.93213121z m534.71524494-253.17591737c-32.09213114 1.71772474-48.13819819 23.29402762-48.1381982 64.72890862v90.49478418c0 64.72890862-32.80435926 97.4075797-98.49686942 97.95222457v-40.93213121c17.38672871-0.20947834 29.95544972-5.15317571 37.78995171-14.91488078 7.83450198-9.55222674 11.7308047-25.76587556 11.73080617-48.68284304v-86.47279328c0-44.49326889 15.50142071-71.4322258 46.42047196-80.7749742v-1.42445478c-30.91905125-10.13876815-46.3785769-37.24530685-46.37857688-81.36151412v-87.89724953c0-39.13061484-16.54881536-59.19867133-49.56265296-60.16227286v-41.81194113c65.69251015 0.58653994 98.49686942 33.60037754 98.49686942 99.08340937v88.23241458c0 41.81194259 16.04606557 63.76530561 48.1381982 65.86009194v38.12511825z"
    fill="#FFFFFF"
    p-id="2408"
  ></path>
  <path
    d="M532.94786639 344.41706602m-41.89573278 0a41.89573277 41.89573277 0 1 0 83.791467 0 41.89573277 41.89573277 0 1 0-83.791467 0Z"
    fill="#FFFFFF"
    p-id="2409"
  ></path>
  <path
    d="M491.05213361 470.10426723m41.89573278 0l0 0q41.89573277 0 41.89573422 41.89573277l0 125.68719975q0 41.89573277-41.89573422 41.89573423l0 0q-41.89573277 0-41.89573278-41.89573423l0-125.68719975q0-41.89573277 41.89573278-41.89573277Z"
    fill="#FFFFFF"
    p-id="2410"
  ></path>
</svg>
