<svg
  t="1776738100228"
  class="icon"
  viewBox="0 0 1024 1024"
  version="1.1"
  xmlns="http://www.w3.org/2000/svg"
  p-id="2186"
  width="200"
  height="200"
>
  <path
    d="M11.456 512c0 275.52 223.36 498.848 498.848 498.848 275.52 0 498.848-223.36 498.848-498.848 0-275.52-223.36-498.848-498.88-498.848C234.816 13.152 11.488 236.512 11.488 512z"
    fill="#ff2322"
    p-id="2187"
  ></path>
  <path
    d="M516.48 399.04a115.072 115.072 0 1 0 0 230.176 115.072 115.072 0 0 0 0-230.144z m0 87.36a27.744 27.744 0 1 1-0.064 55.488 27.744 27.744 0 0 1 0.032-55.488z m0-213.76c-24 0-43.584-19.456-43.584-43.584V124.832a43.552 43.552 0 1 1 87.136 0v104.224c0 24.128-19.552 43.552-43.584 43.552z m0 674.336c-24 0-43.584-19.424-43.584-43.552v-104.224a43.552 43.552 0 1 1 87.136 0v104.224c0 24.128-19.552 43.552-43.584 43.552zM274.56 514.24c0 24-19.488 43.552-43.584 43.552H126.72a43.552 43.552 0 1 1 0-87.136h104.224c24.096 0 43.552 19.552 43.552 43.584z m671.904 0c0 24-19.456 43.552-43.584 43.552h-104.224a43.552 43.552 0 1 1 0-87.136h104.224c24.128 0 43.584 19.552 43.584 43.584z"
    fill="#FFFFFF"
    p-id="2188"
  ></path>
  <path
    d="M516.48 150.432c-200.96 0-363.712 162.88-363.712 363.68 0 135.264 73.856 253.312 183.36 316l41.472-77.12a276.256 276.256 0 0 1 138.88-515.008 276.256 276.256 0 0 1 276.224 276.256 276.256 276.256 0 0 1-276.256 276.256v87.52c200.96 0 363.712-162.88 363.712-363.68S717.376 150.432 516.448 150.432z"
    fill="#FFFFFF"
    p-id="2189"
  ></path>
  <path
    d="M357.728 748.512a43.552 43.552 0 1 1 0 87.104 43.552 43.552 0 0 1 0-87.104z"
    fill="#FFFFFF"
    p-id="2190"
  ></path>
</svg>
