<svg
  height="1030"
  node-id="1"
  sillyvg="true"
  template-height="1030"
  template-width="1030"
  version="1.1"
  viewBox="0 0 1030 1030"
  width="1030"
  xmlns="http://www.w3.org/2000/svg"
  xmlns:xlink="http://www.w3.org/1999/xlink"
>
  <defs node-id="135">
    <linearGradient
      gradientUnits="objectBoundingBox"
      id="未命名的渐变_144"
      node-id="5"
      spreadMethod="pad"
      x1="270.65"
      x2="270.65"
      y1="701.65"
      y2="607.11"
    >
      <stop offset="0" stop-color="#ebebeb" stop-opacity="0" />
      <stop offset="0.01" stop-color="#ebebeb" stop-opacity="0.02" />
      <stop offset="0.12" stop-color="#eaeaea" stop-opacity="0.25" />
      <stop offset="0.23" stop-color="#e9e9e9" stop-opacity="0.45" />
      <stop offset="0.34" stop-color="#e8e8e8" stop-opacity="0.62" />
      <stop offset="0.46" stop-color="#e7e7e7" stop-opacity="0.76" />
      <stop offset="0.58" stop-color="#e7e7e7" stop-opacity="0.86" />
      <stop offset="0.71" stop-color="#e6e6e6" stop-opacity="0.94" />
      <stop offset="0.84" stop-color="#e6e6e6" stop-opacity="0.99" />
      <stop offset="1" stop-color="#e6e6e6" />
    </linearGradient>
    <linearGradient
      gradientUnits="objectBoundingBox"
      id="未命名的渐变_144-2"
      node-id="16"
      spreadMethod="pad"
      x1="147.35"
      x2="147.35"
      y1="837.01"
      y2="742.47"
    >
      <stop offset="0" stop-color="#ebebeb" stop-opacity="0" />
      <stop offset="0.01" stop-color="#ebebeb" stop-opacity="0.02" />
      <stop offset="0.12" stop-color="#eaeaea" stop-opacity="0.25" />
      <stop offset="0.23" stop-color="#e9e9e9" stop-opacity="0.45" />
      <stop offset="0.34" stop-color="#e8e8e8" stop-opacity="0.62" />
      <stop offset="0.46" stop-color="#e7e7e7" stop-opacity="0.76" />
      <stop offset="0.58" stop-color="#e7e7e7" stop-opacity="0.86" />
      <stop offset="0.71" stop-color="#e6e6e6" stop-opacity="0.94" />
      <stop offset="0.84" stop-color="#e6e6e6" stop-opacity="0.99" />
      <stop offset="1" stop-color="#e6e6e6" />
    </linearGradient>
    <linearGradient
      gradientUnits="objectBoundingBox"
      id="未命名的渐变_144-3"
      node-id="17"
      spreadMethod="pad"
      x1="-4702.6"
      x2="-4702.6"
      y1="837.01"
      y2="665.36"
    >
      <stop offset="0" stop-color="#ebebeb" stop-opacity="0" />
      <stop offset="0.01" stop-color="#ebebeb" stop-opacity="0.02" />
      <stop offset="0.12" stop-color="#eaeaea" stop-opacity="0.25" />
      <stop offset="0.23" stop-color="#e9e9e9" stop-opacity="0.45" />
      <stop offset="0.34" stop-color="#e8e8e8" stop-opacity="0.62" />
      <stop offset="0.46" stop-color="#e7e7e7" stop-opacity="0.76" />
      <stop offset="0.58" stop-color="#e7e7e7" stop-opacity="0.86" />
      <stop offset="0.71" stop-color="#e6e6e6" stop-opacity="0.94" />
      <stop offset="0.84" stop-color="#e6e6e6" stop-opacity="0.99" />
      <stop offset="1" stop-color="#e6e6e6" />
    </linearGradient>
    <linearGradient
      gradientUnits="objectBoundingBox"
      id="未命名的渐变_214"
      node-id="18"
      spreadMethod="pad"
      x1="755.73"
      x2="817.84"
      y1="902.91"
      y2="902.91"
    >
      <stop offset="0" stop-color="#8c8c8c" />
      <stop offset="0.23" stop-color="#878787" />
      <stop offset="0.51" stop-color="#777777" />
      <stop offset="0.82" stop-color="#5e5e5e" />
      <stop offset="1" stop-color="#4d4d4d" />
    </linearGradient>
    <linearGradient
      gradientUnits="objectBoundingBox"
      id="未命名的渐变_214-2"
      node-id="24"
      spreadMethod="pad"
      x1="307.08"
      x2="341.36"
      y1="925.81"
      y2="925.81"
    >
      <stop offset="0" stop-color="#8c8c8c" />
      <stop offset="0.23" stop-color="#878787" />
      <stop offset="0.51" stop-color="#777777" />
      <stop offset="0.82" stop-color="#5e5e5e" />
      <stop offset="1" stop-color="#4d4d4d" />
    </linearGradient>
    <linearGradient
      gradientUnits="objectBoundingBox"
      id="未命名的渐变_214-3"
      node-id="25"
      spreadMethod="pad"
      x1="235.91"
      x2="287.21"
      y1="909.54"
      y2="909.54"
    >
      <stop offset="0" stop-color="#8c8c8c" />
      <stop offset="0.23" stop-color="#878787" />
      <stop offset="0.51" stop-color="#777777" />
      <stop offset="0.82" stop-color="#5e5e5e" />
      <stop offset="1" stop-color="#4d4d4d" />
    </linearGradient>
    <linearGradient
      gradientUnits="objectBoundingBox"
      id="未命名的渐变_96"
      node-id="26"
      spreadMethod="pad"
      x1="698.81"
      x2="715.45"
      y1="514.72"
      y2="514.72"
    >
      <stop offset="0" stop-color="#f2f2f2" />
      <stop offset="0.31" stop-color="#ededed" />
      <stop offset="0.69" stop-color="#dedede" />
      <stop offset="1" stop-color="#cccccc" />
    </linearGradient>
    <linearGradient
      gradientUnits="objectBoundingBox"
      id="未命名的渐变_96-2"
      node-id="31"
      spreadMethod="pad"
      x1="816.28"
      x2="849.56"
      y1="806.38"
      y2="806.38"
    >
      <stop offset="0" stop-color="#f2f2f2" />
      <stop offset="0.31" stop-color="#ededed" />
      <stop offset="0.69" stop-color="#dedede" />
      <stop offset="1" stop-color="#cccccc" />
    </linearGradient>
    <linearGradient
      gradientUnits="objectBoundingBox"
      id="未命名的渐变_96-3"
      node-id="32"
      spreadMethod="pad"
      x1="669.14"
      x2="709.07"
      y1="488.37"
      y2="488.37"
    >
      <stop offset="0" stop-color="#f2f2f2" />
      <stop offset="0.31" stop-color="#ededed" />
      <stop offset="0.69" stop-color="#dedede" />
      <stop offset="1" stop-color="#cccccc" />
    </linearGradient>
    <linearGradient
      gradientUnits="objectBoundingBox"
      id="未命名的渐变_96-4"
      node-id="33"
      spreadMethod="pad"
      x1="184.05"
      x2="208.45"
      y1="842.58"
      y2="842.58"
    >
      <stop offset="0" stop-color="#f2f2f2" />
      <stop offset="0.31" stop-color="#ededed" />
      <stop offset="0.69" stop-color="#dedede" />
      <stop offset="1" stop-color="#cccccc" />
    </linearGradient>
    <linearGradient
      gradientUnits="objectBoundingBox"
      id="未命名的渐变_96-5"
      node-id="34"
      spreadMethod="pad"
      x1="180.44"
      x2="244.23"
      y1="799.87"
      y2="799.87"
    >
      <stop offset="0" stop-color="#f2f2f2" />
      <stop offset="0.31" stop-color="#ededed" />
      <stop offset="0.69" stop-color="#dedede" />
      <stop offset="1" stop-color="#cccccc" />
    </linearGradient>
    <linearGradient
      gradientUnits="objectBoundingBox"
      id="未命名的渐变_6"
      node-id="35"
      spreadMethod="pad"
      x1="721.98"
      x2="750.52"
      y1="707.03"
      y2="707.03"
    >
      <stop offset="0" stop-color="#9e9e9e" />
      <stop offset="0.22" stop-color="#999999" />
      <stop offset="0.49" stop-color="#898989" />
      <stop offset="0.78" stop-color="#707070" />
      <stop offset="1" stop-color="#595959" />
    </linearGradient>
    <linearGradient
      gradientUnits="objectBoundingBox"
      id="未命名的渐变_6-2"
      node-id="41"
      spreadMethod="pad"
      x1="655.05"
      x2="730.66"
      y1="577.6"
      y2="708.55"
    >
      <stop offset="0" stop-color="#9e9e9e" />
      <stop offset="0.22" stop-color="#999999" />
      <stop offset="0.49" stop-color="#898989" />
      <stop offset="0.78" stop-color="#707070" />
      <stop offset="1" stop-color="#595959" />
    </linearGradient>
    <linearGradient
      gradientUnits="objectBoundingBox"
      id="未命名的渐变_402"
      node-id="42"
      spreadMethod="pad"
      x1="716.01"
      x2="766.6"
      y1="705.99"
      y2="705.99"
    >
      <stop offset="0" stop-color="#cfcfcf" />
      <stop offset="0.17" stop-color="#cacaca" />
      <stop offset="0.39" stop-color="#bababa" />
      <stop offset="0.62" stop-color="#a1a1a1" />
      <stop offset="0.87" stop-color="#7e7e7e" />
      <stop offset="1" stop-color="#696969" />
    </linearGradient>
    <linearGradient
      gradientUnits="objectBoundingBox"
      id="未命名的渐变_402-2"
      node-id="49"
      spreadMethod="pad"
      x1="702.71"
      x2="747.65"
      y1="699.25"
      y2="699.25"
    >
      <stop offset="0" stop-color="#cfcfcf" />
      <stop offset="0.17" stop-color="#cacaca" />
      <stop offset="0.39" stop-color="#bababa" />
      <stop offset="0.62" stop-color="#a1a1a1" />
      <stop offset="0.87" stop-color="#7e7e7e" />
      <stop offset="1" stop-color="#696969" />
    </linearGradient>
    <linearGradient
      gradientUnits="objectBoundingBox"
      id="未命名的渐变_402-3"
      node-id="50"
      spreadMethod="pad"
      x1="357.46"
      x2="377.56"
      y1="669.41"
      y2="704.22"
    >
      <stop offset="0" stop-color="#cfcfcf" />
      <stop offset="0.17" stop-color="#cacaca" />
      <stop offset="0.39" stop-color="#bababa" />
      <stop offset="0.62" stop-color="#a1a1a1" />
      <stop offset="0.87" stop-color="#7e7e7e" />
      <stop offset="1" stop-color="#696969" />
    </linearGradient>
    <linearGradient
      gradientUnits="objectBoundingBox"
      id="未命名的渐变_6-3"
      node-id="51"
      spreadMethod="pad"
      x1="338.41"
      x2="394.51"
      y1="605.06"
      y2="702.23"
    >
      <stop offset="0" stop-color="#9e9e9e" />
      <stop offset="0.22" stop-color="#999999" />
      <stop offset="0.49" stop-color="#898989" />
      <stop offset="0.78" stop-color="#707070" />
      <stop offset="1" stop-color="#595959" />
    </linearGradient>
    <linearGradient
      gradientUnits="objectBoundingBox"
      id="未命名的渐变_6-4"
      node-id="52"
      spreadMethod="pad"
      x1="426.82"
      x2="630.99"
      y1="583.01"
      y2="583.01"
    >
      <stop offset="0" stop-color="#9e9e9e" />
      <stop offset="0.22" stop-color="#999999" />
      <stop offset="0.49" stop-color="#898989" />
      <stop offset="0.78" stop-color="#707070" />
      <stop offset="1" stop-color="#595959" />
    </linearGradient>
    <linearGradient
      gradientUnits="objectBoundingBox"
      id="未命名的渐变_6-5"
      node-id="53"
      spreadMethod="pad"
      x1="673.68"
      x2="700.83"
      y1="665.57"
      y2="712.58"
    >
      <stop offset="0" stop-color="#9e9e9e" />
      <stop offset="0.22" stop-color="#999999" />
      <stop offset="0.49" stop-color="#898989" />
      <stop offset="0.78" stop-color="#707070" />
      <stop offset="1" stop-color="#595959" />
    </linearGradient>
    <linearGradient
      gradientUnits="objectBoundingBox"
      id="未命名的渐变_402-4"
      node-id="54"
      spreadMethod="pad"
      x1="310.29"
      x2="355.1"
      y1="699.21"
      y2="699.21"
    >
      <stop offset="0" stop-color="#cfcfcf" />
      <stop offset="0.17" stop-color="#cacaca" />
      <stop offset="0.39" stop-color="#bababa" />
      <stop offset="0.62" stop-color="#a1a1a1" />
      <stop offset="0.87" stop-color="#7e7e7e" />
      <stop offset="1" stop-color="#696969" />
    </linearGradient>
    <linearGradient
      gradientUnits="objectBoundingBox"
      id="未命名的渐变_402-5"
      node-id="55"
      spreadMethod="pad"
      x1="291.23"
      x2="341.82"
      y1="705.99"
      y2="705.99"
    >
      <stop offset="0" stop-color="#cfcfcf" />
      <stop offset="0.17" stop-color="#cacaca" />
      <stop offset="0.39" stop-color="#bababa" />
      <stop offset="0.62" stop-color="#a1a1a1" />
      <stop offset="0.87" stop-color="#7e7e7e" />
      <stop offset="1" stop-color="#696969" />
    </linearGradient>
    <linearGradient
      gradientUnits="objectBoundingBox"
      id="未命名的渐变_6-6"
      node-id="56"
      spreadMethod="pad"
      x1="307.29"
      x2="335.83"
      y1="707.04"
      y2="707.04"
    >
      <stop offset="0" stop-color="#9e9e9e" />
      <stop offset="0.22" stop-color="#999999" />
      <stop offset="0.49" stop-color="#898989" />
      <stop offset="0.78" stop-color="#707070" />
      <stop offset="1" stop-color="#595959" />
    </linearGradient>
    <linearGradient
      gradientUnits="objectBoundingBox"
      id="未命名的渐变_402-6"
      node-id="57"
      spreadMethod="pad"
      x1="445.91"
      x2="613.42"
      y1="646.29"
      y2="936.43"
    >
      <stop offset="0" stop-color="#cfcfcf" />
      <stop offset="0.17" stop-color="#cacaca" />
      <stop offset="0.39" stop-color="#bababa" />
      <stop offset="0.62" stop-color="#a1a1a1" />
      <stop offset="0.87" stop-color="#7e7e7e" />
      <stop offset="1" stop-color="#696969" />
    </linearGradient>
    <linearGradient
      gradientUnits="objectBoundingBox"
      id="未命名的渐变_402-7"
      node-id="58"
      spreadMethod="pad"
      x1="619.76"
      x2="669.36"
      y1="599.81"
      y2="685.72"
    >
      <stop offset="0" stop-color="#cfcfcf" />
      <stop offset="0.17" stop-color="#cacaca" />
      <stop offset="0.39" stop-color="#bababa" />
      <stop offset="0.62" stop-color="#a1a1a1" />
      <stop offset="0.87" stop-color="#7e7e7e" />
      <stop offset="1" stop-color="#696969" />
    </linearGradient>
    <linearGradient
      gradientUnits="objectBoundingBox"
      id="未命名的渐变_6-7"
      node-id="59"
      spreadMethod="pad"
      x1="387.94"
      x2="674.45"
      y1="697.81"
      y2="697.81"
    >
      <stop offset="0" stop-color="#9e9e9e" />
      <stop offset="0.22" stop-color="#999999" />
      <stop offset="0.49" stop-color="#898989" />
      <stop offset="0.78" stop-color="#707070" />
      <stop offset="1" stop-color="#595959" />
    </linearGradient>
    <linearGradient
      gradientUnits="objectBoundingBox"
      id="未命名的渐变_1114"
      node-id="60"
      spreadMethod="pad"
      x1="578.38"
      x2="616.31"
      y1="786.59"
      y2="852.29"
    >
      <stop offset="0" stop-color="#828282" />
      <stop offset="1" stop-color="#424242" />
    </linearGradient>
    <linearGradient
      gradientUnits="objectBoundingBox"
      id="未命名的渐变_1114-2"
      node-id="63"
      spreadMethod="pad"
      x1="613.34"
      x2="634.94"
      y1="840.21"
      y2="877.62"
    >
      <stop offset="0" stop-color="#828282" />
      <stop offset="1" stop-color="#424242" />
    </linearGradient>
    <linearGradient
      gradientUnits="objectBoundingBox"
      id="未命名的渐变_402-8"
      node-id="64"
      spreadMethod="pad"
      x1="481.43"
      x2="576.39"
      y1="553.52"
      y2="717.98"
    >
      <stop offset="0" stop-color="#cfcfcf" />
      <stop offset="0.17" stop-color="#cacaca" />
      <stop offset="0.39" stop-color="#bababa" />
      <stop offset="0.62" stop-color="#a1a1a1" />
      <stop offset="0.87" stop-color="#7e7e7e" />
      <stop offset="1" stop-color="#696969" />
    </linearGradient>
    <linearGradient
      gradientUnits="objectBoundingBox"
      id="未命名的渐变_402-9"
      node-id="65"
      spreadMethod="pad"
      x1="383.97"
      x2="424.3"
      y1="609.87"
      y2="679.72"
    >
      <stop offset="0" stop-color="#cfcfcf" />
      <stop offset="0.17" stop-color="#cacaca" />
      <stop offset="0.39" stop-color="#bababa" />
      <stop offset="0.62" stop-color="#a1a1a1" />
      <stop offset="0.87" stop-color="#7e7e7e" />
      <stop offset="1" stop-color="#696969" />
    </linearGradient>
    <linearGradient
      gradientUnits="objectBoundingBox"
      id="未命名的渐变_6-8"
      node-id="66"
      spreadMethod="pad"
      x1="-297.65"
      x2="-293.82"
      y1="720.8"
      y2="736.7"
    >
      <stop offset="0" stop-color="#9e9e9e" />
      <stop offset="0.22" stop-color="#999999" />
      <stop offset="0.49" stop-color="#898989" />
      <stop offset="0.78" stop-color="#707070" />
      <stop offset="1" stop-color="#595959" />
    </linearGradient>
    <linearGradient
      gradientUnits="objectBoundingBox"
      id="未命名的渐变_8"
      node-id="67"
      spreadMethod="pad"
      x1="544.83"
      x2="448.23"
      y1="570.61"
      y2="544.31"
    >
      <stop offset="0" stop-color="#a6a6a6" />
      <stop offset="0.23" stop-color="#a1a1a1" />
      <stop offset="0.51" stop-color="#919191" />
      <stop offset="0.82" stop-color="#787878" />
      <stop offset="1" stop-color="#666666" />
    </linearGradient>
  </defs>
  <path
    d="M 929.00 756.24 C 927.67 756.24 926.37 756.41 925.00 756.47 C 910.66 704.21 857.71 665.36 794.41 665.36 C 778.84 665.34 763.37 667.75 748.55 672.51 C 733.14 650.76 704.47 610.38 691.12 591.99 C 685.63 584.27 676.91 579.48 667.45 578.99 C 656.58 578.60 644.04 581.12 638.03 589.14 L 638.03 589.14 C 635.93 587.68 633.46 586.84 630.91 586.71 L 630.91 586.71 C 626.13 577.97 621.77 579.17 542.27 579.32 C 545.76 563.38 542.46 548.08 533.01 537.62 C 530.67 534.99 528.06 532.61 525.23 530.51 C 522.29 517.22 511.93 508.31 503.02 502.91 C 491.52 495.96 476.45 491.46 464.61 491.46 C 463.17 491.55 462.05 492.74 462.05 494.18 C 462.05 495.63 463.17 496.82 464.61 496.91 C 472.90 496.91 487.19 499.70 500.19 507.57 C 506.81 511.57 514.32 517.71 518.12 526.31 C 508.05 521.77 498.55 523.20 491.78 527.14 C 482.14 532.74 477.64 543.43 480.84 553.14 C 483.79 562.14 493.76 567.41 504.51 565.68 C 514.41 564.10 525.97 555.97 526.06 538.30 C 527.06 539.22 528.00 540.21 528.97 541.30 C 537.44 550.69 540.23 564.72 536.68 579.36 L 528.83 579.36 C 436.38 579.36 431.77 577.53 426.74 586.74 L 426.74 586.74 C 424.21 586.88 421.76 587.70 419.66 589.13 C 413.61 581.13 401.07 578.59 390.20 578.98 C 380.75 579.46 372.04 584.25 366.58 591.98 C 358.00 603.89 343.00 625.00 329.24 644.30 C 326.73 644.68 324.24 645.17 321.82 645.76 C 310.18 622.98 284.39 607.11 254.36 607.11 C 219.50 607.11 190.36 628.50 182.44 657.29 C 181.71 657.29 180.99 657.16 180.26 657.16 C 155.26 657.16 133.99 675.78 126.31 701.65 L 292.66 701.65 C 285.08 729.71 309.13 743.40 328.15 736.03 C 332.88 734.16 337.15 729.85 339.62 724.39 L 339.62 724.31 L 352.00 701.65 L 357.13 701.65 C 359.07 708.30 360.08 715.20 360.13 722.13 L 360.13 862.80 C 360.10 886.62 379.38 905.96 403.20 906.00 L 654.61 906.00 C 678.47 906.00 697.81 886.66 697.81 862.80 L 697.81 837.00 L 1027.00 837.00 C 1013.05 790.05 974.52 756.24 929.00 756.24 Z M 503.73 560.33 C 497.02 561.33 488.60 559.09 486.09 551.46 C 483.71 544.23 487.21 536.19 494.59 531.89 C 497.90 529.99 501.66 528.99 505.48 529.00 C 510.80 529.10 515.97 530.75 520.36 533.75 C 520.58 535.21 520.69 536.68 520.69 538.15 C 520.68 552.51 511.92 559.00 503.73 560.33 Z M 703.34 697.06 L 701.83 698.30 C 702.11 697.50 702.40 696.69 702.71 695.91 Z M 376.69 701.77 C 376.59 702.22 376.48 702.66 376.40 703.13 C 376.48 702.66 376.59 702.22 376.69 701.77 Z M 376.18 704.44 C 376.10 704.90 376.03 705.35 375.97 705.82 C 375.96 705.76 375.96 705.71 375.97 705.65 C 376.00 705.23 376.11 704.85 376.18 704.44 Z M 680.55 699.44 C 680.67 699.85 680.79 700.25 680.90 700.68 C 680.79 700.29 680.67 699.89 680.55 699.48 Z M 681.17 701.93 C 681.26 702.38 681.37 702.81 681.46 703.28 C 681.37 702.85 681.26 702.42 681.17 702.00 Z M 681.67 704.62 C 681.74 705.09 681.83 705.55 681.89 706.05 L 681.89 706.05 C 681.83 705.61 681.74 705.14 681.67 704.66 Z M 680.23 698.27 C 680.10 697.87 679.97 697.50 679.83 697.12 C 680.00 697.54 680.10 697.91 680.23 698.31 Z M 679.47 696.06 C 679.33 695.69 679.18 695.35 679.04 695.00 C 679.18 695.39 679.33 695.73 679.47 696.10 Z M 678.65 694.06 C 678.49 693.72 678.33 693.40 678.17 693.06 C 678.33 693.42 678.49 693.74 678.65 694.08 Z M 677.77 692.22 L 677.27 691.32 Z M 676.85 690.56 C 676.69 690.28 676.52 690.02 676.35 689.76 C 676.52 690.00 676.69 690.30 676.85 690.58 Z M 675.92 689.07 L 675.43 688.37 Z M 674.99 687.74 C 674.82 687.51 674.65 687.30 674.48 687.09 C 674.65 687.32 674.82 687.53 675.00 687.76 Z M 674.07 686.57 L 673.58 686.00 Z M 673.19 685.57 L 672.77 685.12 Z M 672.37 684.71 C 672.24 684.57 672.12 684.46 671.99 684.34 C 672.12 684.47 672.24 684.58 672.37 684.72 Z M 669.54 682.34 C 669.69 682.42 669.83 682.52 669.96 682.64 C 670.20 682.81 670.54 683.06 670.96 683.41 C 670.55 683.06 670.21 682.81 669.96 682.64 C 668.59 682.43 667.21 682.33 665.83 682.34 Z M 671.62 683.99 L 671.21 683.63 Z"
    fill="#ffffff"
    fill-rule="nonzero"
    node-id="536"
    stroke="none"
    target-height="414.54"
    target-width="900.69"
    target-x="126.31"
    target-y="491.46"
  />
  <path
    d="M 763.40 939.78 C 769.69 930.21 779.18 922.36 788.01 915.78 C 789.38 914.78 790.77 913.78 792.19 912.78 C 799.50 929.63 840.86 924.86 847.29 925.16 C 853.96 925.46 846.29 909.49 830.58 897.16 C 815.33 885.22 789.74 896.46 791.27 909.52 C 789.54 910.64 787.88 911.88 786.27 913.08 C 779.27 918.29 771.92 924.23 765.96 931.21 C 766.89 929.58 767.87 927.97 768.80 926.33 C 771.86 921.28 774.98 916.12 777.05 910.46 C 777.58 908.97 778.04 907.44 778.40 905.90 C 780.38 902.92 782.69 900.17 785.29 897.70 C 788.57 894.79 792.08 892.14 795.78 889.78 C 798.08 888.22 800.46 886.62 802.71 884.88 C 806.36 882.17 809.54 878.87 812.10 875.11 C 821.98 876.11 836.56 859.05 839.33 856.63 C 842.45 853.93 832.89 850.02 821.11 851.18 C 809.33 852.34 802.06 869.27 808.78 873.91 L 809.00 874.04 C 806.71 877.16 803.97 879.92 800.87 882.23 C 798.69 883.91 796.36 885.48 794.10 887.01 C 790.26 889.46 786.62 892.21 783.21 895.24 C 781.90 896.49 780.66 897.80 779.50 899.19 C 780.08 892.70 779.29 886.15 777.20 879.98 C 777.75 879.80 778.28 879.56 778.78 879.26 C 786.56 874.50 779.41 855.11 766.30 853.06 C 753.19 851.01 742.30 854.78 745.61 858.00 C 748.49 860.79 762.99 879.76 773.99 880.39 C 776.79 888.14 777.31 896.53 775.48 904.57 C 771.70 910.54 768.59 916.92 766.21 923.57 C 765.94 924.26 765.72 924.96 765.53 925.68 L 764.78 926.92 C 765.17 925.82 765.47 924.70 765.68 923.56 C 767.46 914.04 764.78 903.25 758.37 894.73 C 755.71 891.27 752.59 888.20 749.08 885.61 C 751.90 876.73 736.80 863.39 723.75 867.94 C 709.89 872.78 700.94 882.19 705.75 883.62 C 710.37 884.99 738.58 898.62 747.48 888.41 C 750.68 890.82 753.53 893.65 755.96 896.83 C 761.81 904.56 764.31 914.32 762.64 922.90 C 762.10 925.35 761.40 927.76 760.55 930.12 L 760.14 931.39 C 759.50 933.26 758.92 935.15 758.39 937.08 C 758.13 937.93 757.88 938.78 757.65 939.63 L 749.65 939.45 C 605.60 936.23 457.71 939.18 340.29 944.73 C 340.19 944.38 340.09 944.02 339.98 943.67 C 339.69 942.67 339.36 941.67 338.98 940.67 L 338.75 940.00 C 338.28 938.77 337.90 937.51 337.60 936.23 C 336.78 931.37 338.13 926.39 341.29 922.60 C 342.65 920.93 344.23 919.45 345.98 918.20 C 350.90 923.50 366.46 916.41 368.98 915.69 C 371.50 914.97 366.68 910.02 358.98 907.49 C 351.77 905.11 343.44 912.09 344.98 916.73 C 343.06 918.08 341.33 919.68 339.85 921.50 C 336.40 925.71 334.94 931.20 335.85 936.57 C 335.96 937.17 336.13 937.76 336.34 938.33 L 335.93 937.68 C 335.83 937.30 335.69 936.93 335.56 936.58 C 334.23 933.09 332.51 929.76 330.44 926.66 C 329.43 922.45 329.71 918.03 331.26 913.99 C 337.33 913.66 345.34 903.74 346.93 902.28 C 348.76 900.60 342.74 898.63 335.50 899.70 C 328.26 900.77 324.32 910.91 328.62 913.40 C 328.90 913.56 329.19 913.68 329.49 913.78 C 328.33 917.00 327.90 920.43 328.22 923.84 C 327.58 923.11 326.90 922.41 326.17 921.76 C 324.29 920.16 322.28 918.72 320.17 917.45 C 318.92 916.65 317.63 915.83 316.43 914.95 C 314.73 913.75 313.22 912.31 311.94 910.67 C 311.98 910.65 312.02 910.63 312.06 910.60 C 315.15 908.60 312.89 902.14 308.31 899.67 C 316.96 898.07 326.22 893.60 328.50 892.89 C 332.50 891.66 325.05 883.55 313.61 879.38 C 302.82 875.45 290.35 886.96 292.69 894.61 C 289.78 896.87 287.19 899.53 285.00 902.50 C 279.79 909.66 277.63 918.59 279.00 927.34 C 279.18 928.33 279.42 929.30 279.74 930.25 C 279.55 929.90 279.33 929.54 279.12 929.18 C 278.97 928.56 278.78 927.96 278.56 927.36 C 276.60 921.65 274.03 916.16 270.90 911.00 C 269.39 904.07 269.82 896.86 272.13 890.16 C 281.22 889.61 293.20 873.26 295.57 870.86 C 298.32 868.09 289.31 864.86 278.49 866.61 C 267.67 868.36 261.75 885.09 268.18 889.19 C 268.59 889.45 269.03 889.65 269.49 889.81 C 267.75 895.14 267.11 900.77 267.59 906.36 C 266.63 905.17 265.61 904.03 264.52 902.96 C 261.72 900.35 258.71 897.98 255.52 895.86 C 253.66 894.55 251.73 893.19 249.93 891.75 C 247.36 889.74 245.10 887.36 243.22 884.69 L 243.40 884.58 C 248.95 880.58 242.95 865.99 233.22 864.99 C 223.49 863.99 215.60 867.36 218.17 869.69 C 220.46 871.77 232.50 886.52 240.66 885.61 C 242.76 888.83 245.38 891.67 248.41 894.03 C 250.28 895.53 252.24 896.91 254.14 898.25 C 257.20 900.27 260.10 902.53 262.80 905.00 C 264.95 907.14 266.86 909.51 268.49 912.07 C 268.80 913.40 269.16 914.72 269.60 916.01 C 271.44 920.77 273.72 925.35 276.42 929.68 C 277.19 931.09 278.00 932.48 278.77 933.89 C 273.85 927.89 267.77 922.75 261.99 918.26 C 260.65 917.26 259.28 916.16 257.85 915.19 C 259.12 903.94 237.98 894.25 225.39 904.54 C 212.39 915.16 206.08 928.92 211.59 928.66 C 216.90 928.41 251.05 932.51 257.09 917.98 C 258.26 918.81 259.41 919.69 260.55 920.55 C 267.85 926.27 275.69 933.04 280.88 941.30 C 281.61 942.43 282.28 943.60 282.88 944.80 C 283.35 945.70 283.81 946.67 284.19 947.62 L 284.19 947.68 C 134.93 956.60 57.00 969.45 145.43 976.39 C 307.31 989.09 465.13 995.53 360.87 1009.75 C 256.61 1023.97 333.26 1030.05 423.87 1029.67 C 514.48 1029.29 700.31 1016.67 742.28 992.67 C 783.69 969.00 1111.40 948.28 763.40 939.78 Z M 287.05 904.32 C 289.04 901.60 291.40 899.16 294.05 897.07 C 294.93 898.10 296.04 898.89 297.30 899.38 C 295.30 899.99 294.30 900.88 295.20 901.61 C 296.73 902.87 304.79 911.83 310.20 911.27 C 311.63 913.25 313.38 914.97 315.37 916.38 C 316.62 917.29 317.93 918.13 319.20 918.94 C 321.24 920.16 323.17 921.55 324.99 923.08 C 326.42 924.38 327.70 925.83 328.81 927.41 C 329.01 928.20 329.25 928.98 329.54 929.75 C 330.77 932.66 332.30 935.44 334.09 938.05 C 334.61 938.91 335.15 939.75 335.66 940.60 C 332.28 937.04 328.52 933.86 324.45 931.12 C 323.56 930.49 322.64 929.85 321.68 929.26 C 322.53 922.43 308.40 916.55 299.99 922.80 C 291.31 929.24 287.08 937.59 290.76 937.43 C 294.44 937.27 317.14 939.77 321.17 930.95 C 321.96 931.45 322.72 931.95 323.48 932.51 C 328.30 935.94 333.48 939.98 336.92 944.90 C 319.61 945.73 302.98 946.61 287.13 947.55 C 286.79 946.00 286.44 944.46 286.04 942.95 C 285.72 941.65 285.37 940.31 284.98 938.95 C 284.55 937.29 284.06 935.65 283.54 934.05 L 283.20 932.95 C 282.49 930.92 281.91 928.84 281.47 926.73 C 280.16 919.38 282.22 911.00 287.05 904.32 Z"
    fill="#ffffff"
    fill-rule="nonzero"
    node-id="538"
    stroke="none"
    target-height="180.03003"
    target-width="1054.4"
    target-x="57"
    target-y="850.02"
  />
  <path
    d="M 707.13 523.00 C 711.73 523.00 715.45 519.27 715.45 514.68 C 715.45 510.08 711.73 506.36 707.13 506.36 C 702.54 506.38 698.83 510.09 698.81 514.68 C 698.77 516.90 699.64 519.04 701.20 520.61 C 702.77 522.17 704.91 523.04 707.13 523.00 Z"
    fill="#ffffff"
    fill-rule="nonzero"
    node-id="540"
    stroke="none"
    target-height="16.678284"
    target-width="16.678284"
    target-x="698.7717"
    target-y="506.36"
  />
  <path
    d="M 689.10 468.40 C 685.50 481.71 682.72 484.76 669.10 488.40 C 682.68 492.00 685.46 494.78 689.10 508.40 C 692.71 494.81 695.48 492.03 709.10 488.40 C 695.48 484.76 692.43 482.00 689.10 468.40 Z"
    fill="#ffffff"
    fill-rule="nonzero"
    node-id="542"
    stroke="none"
    target-height="40"
    target-width="40.00006"
    target-x="669.1"
    target-y="468.4"
  />
  <path
    d="M 184.05 842.58 C 192.37 844.80 194.05 846.47 196.25 854.79 C 198.47 846.47 200.13 844.79 208.45 842.58 C 203.07 841.15 200.36 839.93 198.59 837.01 L 291.69 837.01 C 287.50 804.22 256.17 778.73 218.10 778.73 C 217.28 778.73 216.46 778.73 215.64 778.73 C 214.35 775.22 213.24 771.63 212.33 768.00 C 211.35 771.83 210.16 775.61 208.77 779.31 C 205.32 779.71 201.90 780.32 198.52 781.15 C 186.87 758.37 161.08 742.49 131.06 742.49 C 96.19 742.49 67.06 763.89 59.13 792.67 C 58.40 792.67 57.69 792.54 56.95 792.54 C 31.95 792.54 10.68 811.17 3.00 837.03 L 193.78 837.03 C 192.00 839.93 189.43 841.15 184.05 842.58 Z"
    fill="#ffffff"
    fill-rule="nonzero"
    node-id="544"
    stroke="none"
    target-height="112.29993"
    target-width="288.69"
    target-x="3"
    target-y="742.49005"
  />
  <path
    d="M 439.00 476.57 C 435.83 477.51 433.53 480.26 433.18 483.56 C 432.84 486.85 434.50 490.02 437.41 491.60 C 440.32 493.18 443.89 492.85 446.46 490.77 C 449.04 488.69 450.10 485.26 449.16 482.09 C 447.88 477.76 443.33 475.29 439.00 476.57 Z"
    fill="#ffffff"
    fill-rule="nonzero"
    node-id="546"
    stroke="none"
    target-height="17.891327"
    target-width="17.265503"
    target-x="432.83502"
    target-y="475.29105"
  />
  <g node-id="654">
    <path
      d="M 341.41 643.36 C 334.81 643.38 328.23 644.18 321.82 645.76 C 310.18 622.98 284.39 607.11 254.36 607.11 C 219.50 607.11 190.36 628.50 182.44 657.29 C 181.71 657.29 180.99 657.16 180.26 657.16 C 155.26 657.16 133.99 675.78 126.31 701.65 L 415.00 701.65 C 410.81 668.86 379.48 643.36 341.41 643.36 Z"
      fill="url(#未命名的渐变_144)"
      fill-opacity="0.5"
      fill-rule="nonzero"
      group-id="1"
      node-id="550"
      stroke="none"
      target-height="94.54004"
      target-width="288.69"
      target-x="126.31"
      target-y="607.11"
    />
    <path
      d="M 218.10 778.73 C 211.50 778.74 204.93 779.55 198.52 781.13 C 186.87 758.35 161.08 742.47 131.06 742.47 C 96.19 742.47 67.06 763.87 59.13 792.65 C 58.40 792.65 57.69 792.52 56.95 792.52 C 31.95 792.52 10.68 811.15 3.00 837.01 L 291.69 837.01 C 287.50 804.22 256.17 778.73 218.10 778.73 Z"
      fill="url(#未命名的渐变_144-2)"
      fill-opacity="0.5"
      fill-rule="nonzero"
      group-id="1"
      node-id="552"
      stroke="none"
      target-height="94.54004"
      target-width="288.69"
      target-x="3"
      target-y="742.47"
    />
    <path
      d="M 636.45 731.19 C 648.43 731.22 660.37 732.68 672.00 735.54 C 693.14 694.18 740.00 665.36 794.48 665.36 C 857.78 665.36 910.73 704.21 925.07 756.47 C 926.40 756.41 927.70 756.24 929.07 756.24 C 974.55 756.24 1013.07 790.05 1027.07 837.01 L 502.82 837.01 C 510.43 777.47 567.32 731.19 636.45 731.19 Z"
      fill="url(#未命名的渐变_144-3)"
      fill-opacity="0.5"
      fill-rule="nonzero"
      group-id="1"
      node-id="554"
      stroke="none"
      target-height="171.65002"
      target-width="524.24994"
      target-x="502.82"
      target-y="665.36"
    />
    <path
      d="M 756.00 857.59 C 761.48 862.33 766.31 866.72 769.93 872.24 C 776.96 883.27 778.50 896.92 774.11 909.24 C 772.20 914.56 769.11 919.61 766.21 924.51 C 765.75 925.33 765.21 926.12 764.79 926.88 C 762.69 930.26 760.82 933.78 759.20 937.41 C 758.57 938.87 758.03 940.36 757.57 941.88 C 757.11 943.27 756.74 944.69 756.46 946.13 L 755.75 949.67 C 756.50 950.07 757.22 950.39 757.87 950.74 L 758.36 949.58 L 759.44 947.09 C 759.91 945.97 760.44 944.88 761.03 943.82 C 761.74 942.42 762.53 941.06 763.41 939.76 C 769.69 930.17 779.19 922.32 788.03 915.68 C 791.39 913.22 794.81 910.68 798.70 909.32 C 804.70 907.19 811.48 908.23 817.48 909.11 L 817.86 905.82 C 811.54 904.91 804.41 903.82 797.71 906.22 C 793.41 907.68 789.78 910.42 786.28 913.02 C 779.28 918.23 771.93 924.17 765.97 931.15 C 766.90 929.52 767.88 927.91 768.81 926.27 C 771.87 921.22 774.99 916.06 777.06 910.40 C 781.80 897.05 780.13 882.26 772.53 870.31 C 768.60 864.47 763.37 859.80 758.00 855.00 Z"
      fill="url(#未命名的渐变_214)"
      fill-opacity="0.5"
      fill-rule="nonzero"
      group-id="1"
      node-id="556"
      stroke="none"
      target-height="95.73999"
      target-width="62.109924"
      target-x="755.75"
      target-y="855"
    />
    <path
      d="M 735.06 877.81 L 734.00 880.92 C 743.31 884.60 750.91 890.12 756.00 896.84 C 761.85 904.57 764.35 914.33 762.68 922.91 C 762.14 925.36 761.44 927.77 760.59 930.13 L 760.18 931.40 C 759.54 933.27 758.96 935.16 758.43 937.09 C 757.96 938.61 757.54 940.17 757.15 941.67 C 756.45 944.22 755.86 946.82 755.27 949.43 L 755.81 949.72 C 756.56 950.12 757.28 950.44 757.93 950.79 L 758.14 950.91 C 758.21 950.48 758.30 950.05 758.42 949.63 C 758.85 947.51 759.42 945.38 759.96 943.26 C 760.33 941.67 760.83 940.09 761.24 938.53 C 761.83 936.53 762.47 934.53 763.10 932.53 L 763.52 931.26 C 763.99 929.87 764.52 928.43 764.85 926.98 C 765.24 925.88 765.54 924.76 765.75 923.62 C 767.53 914.10 764.85 903.31 758.44 894.79 C 753.00 887.62 744.90 881.77 735.06 877.81 Z"
      fill="#cccccc"
      fill-opacity="0.5"
      fill-rule="nonzero"
      group-id="1"
      node-id="558"
      stroke="none"
      target-height="73.099976"
      target-width="33.53003"
      target-x="734"
      target-y="877.81"
    />
    <path
      d="M 765.64 929.77 L 767.08 928.57 C 766.68 927.57 768.62 926.07 769.08 924.79 C 772.32 916.20 777.08 905.35 785.26 897.69 C 788.54 894.78 792.05 892.13 795.75 889.77 C 798.05 888.21 800.43 886.61 802.68 884.87 C 810.09 879.17 814.50 872.87 815.81 866.21 L 812.75 865.55 C 811.61 871.41 807.60 877.02 800.84 882.22 C 798.66 883.90 796.33 885.47 794.07 887.00 C 790.23 889.45 786.59 892.20 783.18 895.23 C 774.52 903.36 769.55 914.65 766.18 923.58 C 765.49 925.45 764.81 927.63 765.64 929.77 Z"
      fill="#cccccc"
      fill-opacity="0.5"
      fill-rule="nonzero"
      group-id="1"
      node-id="560"
      stroke="none"
      target-height="64.22003"
      target-width="50.99994"
      target-x="764.81006"
      target-y="865.55"
    />
    <path
      d="M 748.35 887.20 C 753.76 878.45 737.59 863.12 723.74 867.95 C 709.89 872.78 700.93 882.20 705.74 883.63 C 710.55 885.06 740.68 899.61 748.35 887.20 Z"
      fill="#ebebeb"
      fill-opacity="0.5"
      fill-rule="nonzero"
      group-id="1"
      node-id="562"
      stroke="none"
      target-height="36.48999"
      target-width="52.830017"
      target-x="700.93"
      target-y="863.12"
    />
    <path
      d="M 778.77 879.25 C 786.55 874.49 779.40 855.10 766.29 853.05 C 753.18 851.00 742.29 854.77 745.60 857.99 C 748.91 861.21 767.74 886.00 778.77 879.25 Z"
      fill="#ebebeb"
      fill-opacity="0.5"
      fill-rule="nonzero"
      group-id="1"
      node-id="564"
      stroke="none"
      target-height="35"
      target-width="44.26001"
      target-x="742.29"
      target-y="851"
    />
    <path
      d="M 791.50 910.76 C 788.10 897.19 814.85 884.83 830.58 897.15 C 846.31 909.47 853.96 925.44 847.29 925.15 C 840.62 924.86 796.32 930.00 791.50 910.76 Z"
      fill="#ebebeb"
      fill-opacity="0.5"
      fill-rule="nonzero"
      group-id="1"
      node-id="566"
      stroke="none"
      target-height="45.169983"
      target-width="65.86005"
      target-x="788.1"
      target-y="884.83"
    />
    <path
      d="M 808.77 873.90 C 802.05 869.26 809.32 852.33 821.10 851.17 C 832.88 850.01 842.44 853.92 839.32 856.62 C 836.20 859.32 818.30 880.48 808.77 873.90 Z"
      fill="#ebebeb"
      fill-opacity="0.5"
      fill-rule="nonzero"
      group-id="1"
      node-id="568"
      stroke="none"
      target-height="30.46997"
      target-width="40.389954"
      target-x="802.05"
      target-y="850.01"
    />
    <path
      d="M 341.23 902.11 C 338.32 904.29 335.73 906.87 333.54 909.77 C 329.66 915.47 328.80 922.70 331.23 929.15 C 332.42 931.95 333.88 934.63 335.59 937.15 C 335.84 937.58 336.13 937.99 336.37 938.39 C 337.53 940.15 338.56 941.99 339.46 943.90 C 339.81 944.66 340.11 945.44 340.36 946.23 C 340.62 946.95 340.82 947.70 340.97 948.45 L 341.36 950.30 C 340.95 950.52 340.55 950.68 340.20 950.86 L 339.92 950.26 L 339.33 948.96 C 339.07 948.37 338.77 947.80 338.45 947.25 C 338.05 946.52 337.62 945.80 337.14 945.12 C 333.67 940.12 328.42 936.00 323.54 932.53 C 321.75 931.14 319.77 930.02 317.65 929.21 C 314.36 928.10 310.65 928.64 307.29 929.10 L 307.08 927.38 C 310.57 926.90 314.50 926.38 318.20 927.58 C 320.47 928.44 322.60 929.64 324.51 931.14 C 328.58 933.88 332.34 937.06 335.72 940.62 C 335.21 939.77 334.67 938.93 334.15 938.07 C 332.36 935.46 330.83 932.68 329.60 929.77 C 326.97 922.78 327.91 914.95 332.10 908.77 C 334.41 905.77 337.10 903.08 340.10 900.77 Z"
      fill="url(#未命名的渐变_214-2)"
      fill-opacity="0.5"
      fill-rule="nonzero"
      group-id="1"
      node-id="570"
      stroke="none"
      target-height="50.090027"
      target-width="34.28"
      target-x="307.08"
      target-y="900.77"
    />
    <path
      d="M 352.78 912.69 L 353.39 914.31 C 348.67 915.94 344.48 918.82 341.26 922.64 C 338.10 926.43 336.75 931.41 337.57 936.27 C 337.87 937.55 338.25 938.81 338.72 940.04 L 338.95 940.71 C 339.30 941.71 339.63 942.71 339.95 943.71 C 340.21 944.51 340.44 945.32 340.65 946.11 C 341.04 947.44 341.36 948.80 341.65 950.11 L 341.35 950.26 C 340.94 950.48 340.54 950.64 340.19 950.82 L 340.07 950.89 C 340.03 950.66 339.98 950.44 339.91 950.22 C 339.68 949.11 339.37 948.00 339.06 946.89 C 338.86 946.06 338.58 945.23 338.35 944.42 C 338.03 943.35 337.68 942.30 337.35 941.25 L 337.12 940.58 C 336.86 939.86 336.58 939.11 336.38 938.35 C 336.17 937.78 336.00 937.19 335.89 936.59 C 334.98 931.22 336.44 925.73 339.89 921.52 C 343.33 917.49 347.78 914.44 352.78 912.69 Z"
      fill="#cccccc"
      fill-opacity="0.5"
      fill-rule="nonzero"
      group-id="1"
      node-id="572"
      stroke="none"
      target-height="38.200073"
      target-width="18.410767"
      target-x="334.97925"
      target-y="912.68994"
    />
    <path
      d="M 335.89 939.85 L 335.10 939.23 C 335.32 938.70 334.25 937.92 333.99 937.23 C 332.20 932.74 329.56 927.07 325.05 923.06 C 323.23 921.53 321.30 920.14 319.26 918.92 C 317.99 918.11 316.68 917.27 315.43 916.36 C 311.35 913.36 308.91 910.10 308.19 906.60 L 309.88 906.26 C 310.51 909.32 312.72 912.26 316.45 914.97 C 317.65 915.85 318.94 916.67 320.19 917.47 C 322.30 918.74 324.31 920.18 326.19 921.78 C 330.97 926.03 333.72 931.93 335.58 936.60 C 336.11 937.60 336.22 938.77 335.89 939.85 Z"
      fill="#cccccc"
      fill-opacity="0.5"
      fill-rule="nonzero"
      group-id="1"
      node-id="574"
      stroke="none"
      target-height="33.589966"
      target-width="28.033478"
      target-x="308.19"
      target-y="906.26"
    />
    <path
      d="M 345.44 917.60 C 342.44 913.02 351.37 905.00 359.02 907.53 C 366.67 910.06 371.62 914.98 369.02 915.73 C 366.42 916.48 349.67 924.08 345.44 917.60 Z"
      fill="#ebebeb"
      fill-opacity="0.5"
      fill-rule="nonzero"
      group-id="1"
      node-id="576"
      stroke="none"
      target-height="19.080017"
      target-width="29.179993"
      target-x="342.44"
      target-y="905"
    />
    <path
      d="M 328.65 913.44 C 324.35 910.95 328.30 900.81 335.53 899.74 C 342.76 898.67 348.79 900.64 346.96 902.32 C 345.13 904.00 334.74 917.00 328.65 913.44 Z"
      fill="#ebebeb"
      fill-opacity="0.5"
      fill-rule="nonzero"
      group-id="1"
      node-id="578"
      stroke="none"
      target-height="18.329956"
      target-width="24.440002"
      target-x="324.35"
      target-y="898.67004"
    />
    <path
      d="M 321.62 929.91 C 323.49 922.82 308.73 916.36 300.05 922.80 C 291.37 929.24 287.14 937.59 290.82 937.43 C 294.50 937.27 319.00 940.00 321.62 929.91 Z"
      fill="#ebebeb"
      fill-opacity="0.5"
      fill-rule="nonzero"
      group-id="1"
      node-id="580"
      stroke="none"
      target-height="23.640015"
      target-width="36.349976"
      target-x="287.14"
      target-y="916.36"
    />
    <path
      d="M 312.08 910.64 C 315.80 908.22 311.78 899.36 305.28 898.76 C 298.78 898.16 293.50 900.19 295.22 901.61 C 296.94 903.03 306.82 914.08 312.08 910.64 Z"
      fill="#ebebeb"
      fill-opacity="0.5"
      fill-rule="nonzero"
      group-id="1"
      node-id="582"
      stroke="none"
      target-height="15.920044"
      target-width="22.299988"
      target-x="293.5"
      target-y="898.16"
    />
    <path
      d="M 287.00 870.49 C 282.48 874.57 278.48 878.36 275.50 883.11 C 269.67 892.70 268.39 904.38 272.00 915.00 C 273.77 919.58 275.95 923.99 278.52 928.17 C 278.91 928.87 279.34 929.55 279.70 930.17 C 281.44 933.09 282.99 936.12 284.32 939.24 C 284.84 940.50 285.28 941.78 285.66 943.09 C 286.04 944.29 286.35 945.51 286.58 946.75 L 287.17 949.75 C 286.55 950.10 285.95 950.38 285.42 950.68 L 285.01 949.68 L 284.12 947.53 C 283.74 946.58 283.28 945.61 282.81 944.71 C 282.21 943.51 281.54 942.34 280.81 941.21 C 275.62 932.95 267.81 926.21 260.48 920.46 C 257.70 918.34 254.88 916.12 251.66 914.98 C 246.73 913.15 241.11 914.04 236.16 914.80 L 235.84 911.97 C 241.06 911.18 246.95 910.26 252.48 912.31 C 256.03 913.57 259.03 915.93 261.92 918.17 C 267.70 922.66 273.78 927.78 278.70 933.80 C 277.93 932.39 277.12 931.00 276.35 929.59 C 273.65 925.26 271.37 920.68 269.53 915.92 C 265.62 904.41 266.99 891.77 273.28 881.37 C 276.50 876.29 280.83 872.26 285.28 868.15 Z"
      fill="url(#未命名的渐变_214-3)"
      fill-opacity="0.5"
      fill-rule="nonzero"
      group-id="1"
      node-id="584"
      stroke="none"
      target-height="82.52997"
      target-width="51.330017"
      target-x="235.84"
      target-y="868.14996"
    />
    <path
      d="M 304.28 887.92 L 305.20 890.60 C 297.99 893.40 291.71 898.15 287.05 904.32 C 282.22 910.97 280.16 919.38 281.53 926.78 C 281.97 928.89 282.55 930.97 283.26 933.00 L 283.60 934.10 C 284.12 935.70 284.60 937.34 285.04 939.00 C 285.43 940.31 285.78 941.65 286.10 943.00 C 286.68 945.19 287.16 947.44 287.65 949.68 L 287.21 949.93 C 286.59 950.28 285.99 950.56 285.46 950.86 L 285.28 950.96 C 285.23 950.59 285.15 950.22 285.05 949.86 C 284.70 948.03 284.24 946.20 283.78 944.37 C 283.48 943.00 283.06 941.64 282.72 940.29 C 282.24 938.54 281.72 936.81 281.18 935.08 L 280.84 933.98 C 280.45 932.78 280.04 931.54 279.74 930.30 C 279.42 929.35 279.18 928.38 279.00 927.39 C 277.63 918.64 279.79 909.71 285.00 902.55 C 289.98 896.01 296.64 890.95 304.28 887.92 Z"
      fill="#cccccc"
      fill-opacity="0.5"
      fill-rule="nonzero"
      group-id="1"
      node-id="586"
      stroke="none"
      target-height="63.04004"
      target-width="27.568481"
      target-x="277.63153"
      target-y="887.92"
    />
    <path
      d="M 279.00 932.69 L 277.82 931.69 C 278.14 930.83 276.54 929.53 276.15 928.43 C 273.47 921.03 269.53 911.68 262.78 905.07 C 260.08 902.57 257.18 900.29 254.12 898.25 C 252.22 896.91 250.26 895.53 248.39 894.03 C 242.28 889.12 238.63 883.71 237.55 877.95 L 240.08 877.38 C 241.02 882.38 244.33 887.26 249.91 891.75 C 251.71 893.19 253.64 894.55 255.50 895.86 C 258.69 897.98 261.70 900.35 264.50 902.96 C 271.65 909.96 275.76 919.69 278.50 927.39 C 279.14 929.00 279.71 930.85 279.00 932.69 Z"
      fill="#cccccc"
      fill-opacity="0.5"
      fill-rule="nonzero"
      group-id="1"
      node-id="588"
      stroke="none"
      target-height="55.309998"
      target-width="42.15999"
      target-x="237.55"
      target-y="877.38"
    />
    <path
      d="M 293.30 896.00 C 288.83 888.45 302.19 875.24 313.63 879.41 C 325.07 883.58 332.47 891.69 328.52 892.92 C 324.57 894.15 299.64 906.70 293.30 896.00 Z"
      fill="#ebebeb"
      fill-opacity="0.5"
      fill-rule="nonzero"
      group-id="1"
      node-id="590"
      stroke="none"
      target-height="31.45996"
      target-width="43.640015"
      target-x="288.83"
      target-y="875.24"
    />
    <path
      d="M 268.18 889.16 C 261.75 885.06 267.66 868.34 278.49 866.58 C 289.32 864.82 298.32 868.06 295.57 870.83 C 292.82 873.60 277.29 895.00 268.18 889.16 Z"
      fill="#ebebeb"
      fill-opacity="0.5"
      fill-rule="nonzero"
      group-id="1"
      node-id="592"
      stroke="none"
      target-height="30.179993"
      target-width="36.570007"
      target-x="261.75"
      target-y="864.82"
    />
    <path
      d="M 257.66 916.31 C 260.47 904.62 238.38 893.96 225.39 904.58 C 212.40 915.20 206.08 929.00 211.59 928.70 C 217.10 928.40 253.68 932.87 257.66 916.31 Z"
      fill="#ebebeb"
      fill-opacity="0.5"
      fill-rule="nonzero"
      group-id="1"
      node-id="594"
      stroke="none"
      target-height="38.909973"
      target-width="54.39"
      target-x="206.08"
      target-y="893.96"
    />
    <path
      d="M 243.40 884.55 C 248.95 880.55 242.95 865.96 233.22 864.96 C 223.49 863.96 215.60 867.33 218.17 869.66 C 220.74 871.99 235.53 890.22 243.40 884.55 Z"
      fill="#ebebeb"
      fill-opacity="0.5"
      fill-rule="nonzero"
      group-id="1"
      node-id="596"
      stroke="none"
      target-height="26.259949"
      target-width="33.350006"
      target-x="215.6"
      target-y="863.96"
    />
    <path
      d="M 145.43 976.39 C 307.31 989.09 465.13 995.53 360.87 1009.75 C 256.61 1023.97 333.26 1030.05 423.87 1029.67 C 514.48 1029.29 700.31 1016.67 742.28 992.67 C 784.25 968.67 1119.95 947.73 749.62 939.45 C 379.29 931.17 -16.45 963.68 145.43 976.39 Z"
      fill="#dbdbdb"
      fill-opacity="0.5"
      fill-rule="nonzero"
      group-id="1"
      node-id="598"
      stroke="none"
      target-height="98.880066"
      target-width="1136.3999"
      target-x="-16.45"
      target-y="931.17"
    />
    <path
      d="M 715.45 514.72 C 715.45 516.93 714.57 519.04 713.01 520.60 C 711.45 522.16 709.34 523.04 707.13 523.04 C 704.92 523.04 702.81 522.16 701.25 520.60 C 699.69 519.04 698.81 516.93 698.81 514.72 C 698.81 512.51 699.69 510.40 701.25 508.84 C 702.81 507.28 704.92 506.40 707.13 506.40 C 709.34 506.40 711.45 507.28 713.01 508.84 C 714.57 510.40 715.45 512.51 715.45 514.72 Z"
      fill="url(#未命名的渐变_96)"
      fill-opacity="0.5"
      fill-rule="nonzero"
      group-id="1"
      node-id="600"
      stroke="none"
      target-height="16.640015"
      target-width="16.640076"
      target-x="698.80994"
      target-y="506.39996"
    />
    <path
      d="M 849.56 806.38 C 838.19 809.38 835.97 811.65 832.92 823.02 C 829.92 811.65 827.65 809.43 816.28 806.38 C 827.37 803.38 829.87 800.84 832.92 789.74 C 835.69 800.84 838.19 803.33 849.56 806.38 Z"
      fill="url(#未命名的渐变_96-2)"
      fill-opacity="0.5"
      fill-rule="nonzero"
      group-id="1"
      node-id="602"
      stroke="none"
      target-height="33.28003"
      target-width="33.279907"
      target-x="816.28"
      target-y="789.74"
    />
    <path
      d="M 709.07 488.37 C 695.48 491.97 692.71 494.75 689.07 508.37 C 685.47 494.78 682.69 492.00 669.07 488.37 C 682.65 484.76 685.43 481.71 689.07 468.37 C 692.43 482.00 695.48 484.76 709.07 488.37 Z"
      fill="url(#未命名的渐变_96-3)"
      fill-opacity="0.5"
      fill-rule="nonzero"
      group-id="1"
      node-id="604"
      stroke="none"
      target-height="40"
      target-width="40"
      target-x="669.07"
      target-y="468.37"
    />
    <path
      d="M 208.45 842.58 C 208.45 845.82 207.16 848.92 204.88 851.21 C 202.59 853.49 199.49 854.78 196.25 854.78 C 193.01 854.78 189.91 853.49 187.62 851.21 C 185.34 848.92 184.05 845.82 184.05 842.58 C 184.05 839.34 185.34 836.24 187.62 833.95 C 189.91 831.67 193.01 830.38 196.25 830.38 C 199.49 830.38 202.59 831.67 204.88 833.95 C 207.16 836.24 208.45 839.34 208.45 842.58 Z"
      fill="url(#未命名的渐变_96-4)"
      fill-opacity="0.5"
      fill-rule="nonzero"
      group-id="1"
      node-id="606"
      stroke="none"
      target-height="24.400085"
      target-width="24.399994"
      target-x="184.05002"
      target-y="830.38"
    />
    <path
      d="M 244.23 799.87 C 222.60 805.42 218.16 810.13 212.33 831.77 C 206.79 810.13 202.07 805.70 180.44 799.87 C 202.07 794.33 206.51 789.61 212.33 767.98 C 217.88 789.33 222.60 794.05 244.23 799.87 Z"
      fill="url(#未命名的渐变_96-5)"
      fill-opacity="0.5"
      fill-rule="nonzero"
      group-id="1"
      node-id="608"
      stroke="none"
      target-height="63.79004"
      target-width="63.789993"
      target-x="180.44"
      target-y="767.98004"
    />
    <path
      d="M 747.91 700.00 C 749.88 702.73 750.79 706.08 750.47 709.43 C 749.36 723.11 735.20 722.13 733.00 716.00 L 722.00 699.24 C 729.59 691.24 742.09 692.59 747.67 699.71 Z"
      fill="url(#未命名的渐变_6)"
      fill-opacity="0.5"
      fill-rule="nonzero"
      group-id="1"
      node-id="610"
      stroke="none"
      target-height="31.869995"
      target-width="28.789734"
      target-x="722"
      target-y="691.24"
    />
    <path
      d="M 724.20 674.84 C 713.71 676.84 706.80 685.55 702.71 695.91 C 699.49 704.28 697.83 713.16 697.81 722.13 L 697.81 714.33 C 697.81 682.09 695.21 677.44 683.69 659.79 L 642.42 593.65 C 641.32 591.88 639.85 590.37 638.11 589.22 L 638.11 589.22 C 644.11 581.22 656.66 578.68 667.53 579.07 C 676.99 579.56 685.71 584.35 691.20 592.07 C 710.00 617.83 759.00 687.08 759.00 687.08 C 759.77 688.40 760.45 689.72 761.09 691.00 C 755.93 682.00 746.38 672.80 729.54 674.12 C 727.75 674.26 725.97 674.50 724.20 674.84 Z"
      fill="url(#未命名的渐变_6-2)"
      fill-opacity="0.5"
      fill-rule="nonzero"
      group-id="1"
      node-id="612"
      stroke="none"
      target-height="143.45007"
      target-width="122.98004"
      target-x="638.11"
      target-y="578.68"
    />
    <path
      d="M 761.00 691.00 C 778.53 726.14 750.90 744.26 729.66 736.00 C 724.89 734.17 720.66 729.82 718.15 724.36 C 714.61 716.84 715.42 707.99 720.28 701.25 C 720.79 700.55 721.35 699.88 721.94 699.25 L 733.00 716.00 C 735.21 722.14 749.37 723.12 750.48 709.48 C 750.80 706.13 749.89 702.78 747.92 700.05 L 747.66 699.71 L 729.50 674.13 C 746.33 672.80 755.88 682.00 761.00 691.00 Z"
      fill="url(#未命名的渐变_402)"
      fill-opacity="0.5"
      fill-rule="nonzero"
      group-id="1"
      node-id="614"
      stroke="none"
      target-height="71.46002"
      target-width="63.923767"
      target-x="714.6062"
      target-y="672.8"
    />
    <path
      d="M 729.49 674.12 L 747.65 699.70 C 742.07 692.58 729.57 691.22 721.98 699.23 C 721.39 699.86 720.83 700.53 720.32 701.23 C 715.46 707.97 714.65 716.82 718.19 724.34 L 702.71 695.86 C 706.80 685.50 713.71 676.86 724.20 674.79 C 725.95 674.47 727.72 674.25 729.49 674.12 Z"
      fill="url(#未命名的渐变_402-2)"
      fill-opacity="0.5"
      fill-rule="nonzero"
      group-id="1"
      node-id="616"
      stroke="none"
      target-height="50.22003"
      target-width="44.940002"
      target-x="702.71"
      target-y="674.12"
    />
    <path
      d="M 387.85 682.65 C 371.94 684.72 360.03 698.28 360.05 714.33 C 360.05 682.09 362.61 677.44 374.12 659.79 C 371.28 664.34 371.13 670.08 373.74 674.77 C 376.35 679.46 381.29 682.36 386.66 682.35 L 388.28 682.35 C 388.12 682.43 387.98 682.53 387.85 682.65 Z"
      fill="url(#未命名的渐变_402-3)"
      fill-opacity="0.5"
      fill-rule="nonzero"
      group-id="1"
      node-id="618"
      stroke="none"
      target-height="54.54004"
      target-width="28.247986"
      target-x="360.032"
      target-y="659.79"
    />
    <path
      d="M 374.12 659.79 C 362.61 677.44 360.05 682.09 360.05 714.33 L 360.05 722.13 C 360.04 713.14 358.36 704.24 355.10 695.86 C 351.01 685.55 344.10 676.86 333.61 674.86 C 331.86 674.52 330.10 674.28 328.32 674.14 C 311.91 672.82 302.40 681.60 297.15 690.38 C 297.66 689.32 298.26 688.21 298.90 687.10 C 298.90 687.10 347.90 617.85 366.66 592.01 C 372.12 584.28 380.83 579.49 390.28 579.01 C 401.15 578.62 413.69 581.14 419.74 589.16 L 419.74 589.16 C 417.97 590.28 416.48 591.80 415.40 593.59 Z"
      fill="url(#未命名的渐变_6-3)"
      fill-opacity="0.5"
      fill-rule="nonzero"
      group-id="1"
      node-id="620"
      stroke="none"
      target-height="143.51007"
      target-width="122.59"
      target-x="297.15"
      target-y="578.62"
    />
    <path
      d="M 528.91 579.37 C 621.39 579.37 625.96 577.54 630.99 586.75 L 630.99 586.75 C 630.64 586.68 630.28 586.65 629.92 586.66 L 427.92 586.66 C 427.55 586.65 427.18 586.68 426.81 586.75 L 426.81 586.75 C 431.85 577.54 436.46 579.37 528.91 579.37 Z"
      fill="url(#未命名的渐变_6-4)"
      fill-opacity="0.5"
      fill-rule="nonzero"
      group-id="1"
      node-id="622"
      stroke="none"
      target-height="9.210022"
      target-width="204.18"
      target-x="426.81"
      target-y="577.54"
    />
    <path
      d="M 683.69 659.79 C 695.21 677.44 697.81 682.09 697.81 714.33 C 697.79 698.29 685.90 684.75 670.00 682.65 C 669.87 682.53 669.73 682.43 669.58 682.35 L 671.24 682.35 C 676.59 682.33 681.51 679.42 684.10 674.73 C 686.69 670.05 686.53 664.33 683.69 659.79 Z"
      fill="url(#未命名的渐变_6-5)"
      fill-opacity="0.5"
      fill-rule="nonzero"
      group-id="1"
      node-id="624"
      stroke="none"
      target-height="54.54004"
      target-width="28.22992"
      target-x="669.58"
      target-y="659.79"
    />
    <path
      d="M 333.61 674.84 C 344.10 676.84 351.01 685.55 355.10 695.84 L 339.66 724.29 C 343.18 716.80 342.36 708.00 337.53 701.29 C 337.02 700.58 336.45 699.91 335.83 699.29 C 328.24 691.36 315.96 692.64 310.29 699.59 L 328.29 674.18 C 330.07 674.30 331.85 674.52 333.61 674.84 Z"
      fill="url(#未命名的渐变_402-4)"
      fill-opacity="0.5"
      fill-rule="nonzero"
      group-id="1"
      node-id="626"
      stroke="none"
      target-height="50.109924"
      target-width="44.809998"
      target-x="310.29"
      target-y="674.18"
    />
    <path
      d="M 337.53 701.28 C 342.36 707.99 343.18 716.79 339.66 724.28 L 339.66 724.36 C 337.23 729.82 332.92 734.13 328.19 736.00 C 306.83 744.28 279.11 726.00 297.02 690.59 C 297.02 690.50 297.15 690.42 297.19 690.33 C 302.44 681.55 311.95 672.77 328.36 674.09 L 310.36 699.50 L 310.01 700.01 C 308.01 702.73 307.08 706.08 307.41 709.44 C 308.52 723.08 322.72 722.10 324.94 715.96 L 335.94 699.20 C 336.52 699.85 337.05 700.55 337.53 701.28 Z"
      fill="url(#未命名的渐变_402-5)"
      fill-opacity="0.5"
      fill-rule="nonzero"
      group-id="1"
      node-id="628"
      stroke="none"
      target-height="71.51007"
      target-width="64.06558"
      target-x="279.11"
      target-y="672.77"
    />
    <path
      d="M 335.83 699.23 L 324.83 715.99 C 322.61 722.13 308.41 723.11 307.30 709.47 C 306.97 706.11 307.90 702.76 309.90 700.04 L 310.25 699.53 C 316.00 692.58 328.24 691.30 335.83 699.23 Z"
      fill="url(#未命名的渐变_6-6)"
      fill-opacity="0.5"
      fill-rule="nonzero"
      group-id="1"
      node-id="630"
      stroke="none"
      target-height="31.809937"
      target-width="28.85614"
      target-x="306.97385"
      target-y="691.30005"
    />
    <path
      d="M 697.81 722.13 L 697.81 862.76 C 697.81 886.62 678.47 905.96 654.61 905.96 L 403.20 905.96 C 391.75 905.96 380.78 901.41 372.68 893.32 C 364.59 885.22 360.05 874.25 360.05 862.80 L 360.05 714.33 C 360.03 698.28 371.94 684.72 387.85 682.65 C 385.93 684.01 378.04 690.48 375.98 705.65 C 375.69 707.55 376.24 709.48 377.49 710.94 C 378.73 712.40 380.55 713.24 382.47 713.26 L 675.36 713.26 C 677.21 713.28 678.98 712.51 680.23 711.14 C 681.48 709.77 682.08 707.93 681.89 706.09 C 679.89 690.60 671.89 684.03 669.96 682.65 C 685.87 684.73 697.79 698.28 697.81 714.33 Z M 662.63 819.44 C 662.63 813.60 657.89 808.86 652.05 808.86 L 542.59 808.86 C 536.78 808.92 532.09 813.63 532.06 819.44 C 532.06 825.26 536.77 829.98 542.59 830.00 L 652.05 830.00 C 657.88 829.97 662.59 825.26 662.63 819.43 Z M 656.79 858.92 C 656.78 853.08 652.05 848.35 646.21 848.35 L 602.00 848.35 C 596.19 848.41 591.51 853.11 591.47 858.92 C 591.46 864.75 596.17 869.48 602.00 869.50 L 646.18 869.50 C 648.98 869.50 651.67 868.38 653.64 866.39 C 655.66 864.43 656.79 861.73 656.79 858.92 Z"
      fill="url(#未命名的渐变_402-6)"
      fill-opacity="0.5"
      fill-rule="nonzero"
      group-id="1"
      node-id="632"
      stroke="none"
      target-height="223.31"
      target-width="337.77792"
      target-x="360.032"
      target-y="682.65"
    />
    <path
      d="M 683.69 659.79 C 686.53 664.33 686.69 670.06 684.09 674.75 C 681.50 679.44 676.56 682.35 671.20 682.35 L 638.11 682.35 L 638.11 589.22 C 639.85 590.37 641.32 591.88 642.42 593.65 Z"
      fill="url(#未命名的渐变_402-7)"
      fill-opacity="0.5"
      fill-rule="nonzero"
      group-id="1"
      node-id="634"
      stroke="none"
      target-height="93.130005"
      target-width="48.576782"
      target-x="638.11"
      target-y="589.22"
    />
    <path
      d="M 675.43 713.26 L 382.43 713.26 C 380.60 713.28 378.84 712.51 377.61 711.16 C 376.37 709.80 375.77 707.98 375.96 706.16 C 377.96 690.62 385.96 684.03 387.90 682.65 C 389.28 682.44 390.68 682.34 392.08 682.35 L 665.88 682.35 C 667.26 682.34 668.64 682.44 670.01 682.65 C 671.96 684.03 680.01 690.65 681.95 706.16 C 682.14 707.99 681.53 709.82 680.29 711.18 C 679.04 712.53 677.27 713.29 675.43 713.26 Z"
      fill="url(#未命名的渐变_6-7)"
      fill-opacity="0.5"
      fill-rule="nonzero"
      group-id="1"
      node-id="636"
      stroke="none"
      target-height="30.95398"
      target-width="306.36722"
      target-x="375.77194"
      target-y="682.3386"
    />
    <path
      d="M 652.05 808.86 C 657.89 808.86 662.63 813.60 662.63 819.44 C 662.59 825.26 657.87 829.97 652.05 830.00 L 542.59 830.00 C 536.77 829.98 532.05 825.25 532.06 819.43 C 532.09 813.62 536.78 808.91 542.59 808.85 Z"
      fill="url(#未命名的渐变_1114)"
      fill-opacity="0.5"
      fill-rule="nonzero"
      group-id="1"
      node-id="638"
      stroke="none"
      target-height="21.150024"
      target-width="130.57556"
      target-x="532.05444"
      target-y="808.85"
    />
    <path
      d="M 646.21 848.35 C 652.05 848.35 656.78 853.08 656.79 858.92 C 656.80 861.73 655.68 864.42 653.67 866.39 C 651.70 868.38 649.01 869.50 646.21 869.50 L 602.00 869.50 C 596.17 869.48 591.46 864.75 591.47 858.92 C 591.51 853.11 596.19 848.41 602.00 848.35 Z"
      fill="url(#未命名的渐变_1114-2)"
      fill-opacity="0.5"
      fill-rule="nonzero"
      group-id="1"
      node-id="640"
      stroke="none"
      target-height="21.150024"
      target-width="65.336"
      target-x="591.4644"
      target-y="848.35"
    />
    <path
      d="M 638.11 589.22 L 638.11 682.35 L 419.74 682.35 L 419.74 589.18 C 421.84 587.75 424.29 586.93 426.82 586.79 C 427.19 586.72 427.56 586.69 427.93 586.70 L 629.93 586.70 C 630.29 586.69 630.65 586.72 631.00 586.79 C 633.55 586.92 636.01 587.76 638.11 589.22 Z"
      fill="url(#未命名的渐变_402-8)"
      fill-opacity="0.5"
      fill-rule="nonzero"
      group-id="1"
      node-id="642"
      stroke="none"
      target-height="95.664795"
      target-width="218.37"
      target-x="419.74"
      target-y="586.6852"
    />
    <path
      d="M 419.74 589.22 L 419.74 682.35 L 386.66 682.35 C 381.29 682.36 376.35 679.46 373.74 674.77 C 371.13 670.08 371.28 664.34 374.12 659.79 L 415.40 593.65 C 416.48 591.86 417.97 590.34 419.74 589.22 Z"
      fill="url(#未命名的渐变_402-9)"
      fill-opacity="0.5"
      fill-rule="nonzero"
      group-id="1"
      node-id="644"
      stroke="none"
      target-height="93.13995"
      target-width="48.606262"
      target-x="371.13373"
      target-y="589.22"
    />
    <path
      d="M 392.00 835.65 C 391.48 845.47 391.35 855.81 396.52 864.56 C 398.75 868.48 402.02 871.70 405.97 873.88 C 410.80 876.38 416.18 876.99 421.55 877.10 C 424.56 877.10 427.00 874.66 427.00 871.65 C 427.00 868.64 424.56 866.20 421.55 866.20 C 420.55 866.20 419.45 866.15 418.40 866.07 C 417.87 866.07 417.35 866.00 416.82 865.94 C 415.70 865.82 418.03 866.19 416.09 865.84 C 415.17 865.67 414.25 865.46 413.35 865.19 C 412.61 865.00 411.90 864.72 411.24 864.34 C 410.54 863.97 409.87 863.54 409.24 863.06 C 410.00 863.65 408.74 862.57 408.72 862.55 L 407.97 861.80 C 407.67 861.48 407.38 861.15 407.09 860.80 C 406.80 860.45 407.31 861.19 406.82 860.42 C 406.33 859.65 405.82 858.92 405.42 858.12 C 405.25 857.81 405.10 857.48 404.94 857.12 C 404.17 855.63 405.08 857.57 404.73 856.69 C 404.38 855.81 404.11 855.00 403.86 854.13 C 403.36 852.46 403.03 850.74 402.86 849.01 C 402.55 844.55 402.57 840.07 402.91 835.61 C 402.89 832.61 400.46 830.18 397.46 830.16 C 394.48 830.23 392.08 832.63 392.01 835.61 Z"
      fill="#ffffff"
      fill-opacity="0.5"
      fill-rule="nonzero"
      group-id="1"
      node-id="646"
      stroke="none"
      target-height="46.940002"
      target-width="35.649963"
      target-x="391.35004"
      target-y="830.16"
    />
    <path
      d="M 442.38 877.33 C 449.38 877.33 449.38 866.43 442.38 866.43 C 435.38 866.43 435.38 877.33 442.38 877.33 Z"
      fill="#ffffff"
      fill-opacity="0.5"
      fill-rule="nonzero"
      group-id="1"
      node-id="648"
      stroke="none"
      target-height="10.900024"
      target-width="14.0000305"
      target-x="435.38"
      target-y="866.43"
    />
    <path
      d="M 449.44 484.41 C 449.44 486.58 448.58 488.65 447.05 490.19 C 445.51 491.72 443.44 492.58 441.27 492.58 C 439.10 492.58 437.03 491.72 435.49 490.19 C 433.96 488.65 433.10 486.58 433.10 484.41 C 433.10 482.24 433.96 480.17 435.49 478.63 C 437.03 477.10 439.10 476.24 441.27 476.24 C 443.44 476.24 445.51 477.10 447.05 478.63 C 448.58 480.17 449.44 482.24 449.44 484.41 Z"
      fill="url(#未命名的渐变_6-8)"
      fill-opacity="0.5"
      fill-rule="nonzero"
      group-id="1"
      node-id="650"
      stroke="none"
      target-height="16.340027"
      target-width="16.340027"
      target-x="433.09998"
      target-y="476.24"
    />
    <path
      d="M 507.07 619.70 C 505.68 619.72 504.50 618.69 504.33 617.31 C 504.16 615.93 505.07 614.64 506.42 614.33 C 519.35 611.18 530.90 598.81 535.83 582.80 C 540.72 566.94 538.18 551.43 529.05 541.31 C 528.05 540.24 527.11 539.25 526.14 538.31 C 526.05 555.98 514.49 564.11 504.59 565.69 C 493.84 567.42 483.87 562.14 480.92 553.15 C 477.72 543.45 482.22 532.76 491.86 527.15 C 498.63 523.21 508.13 521.78 518.20 526.32 C 514.40 517.72 506.89 511.59 500.27 507.58 C 487.27 499.74 473.00 497.00 464.69 497.00 C 463.25 496.91 462.13 495.72 462.13 494.28 C 462.13 492.83 463.25 491.64 464.69 491.55 C 476.53 491.55 491.60 496.05 503.10 503.00 C 512.01 508.40 522.37 517.31 525.31 530.60 C 528.14 532.70 530.75 535.08 533.09 537.71 C 543.53 549.27 546.50 566.71 541.04 584.46 C 535.47 602.53 522.70 616.02 507.71 619.67 C 507.50 619.70 507.28 619.71 507.07 619.70 Z M 505.48 529.00 C 501.66 528.98 497.91 529.97 494.59 531.87 C 487.21 536.17 483.71 544.21 486.09 551.45 C 488.60 559.07 497.02 561.35 503.73 560.31 C 511.92 559.00 520.68 552.49 520.73 538.15 C 520.73 536.68 520.62 535.21 520.40 533.75 C 516.00 530.74 510.81 529.09 505.48 529.00 Z"
      fill="url(#未命名的渐变_8)"
      fill-opacity="0.5"
      fill-rule="nonzero"
      group-id="1"
      node-id="652"
      stroke="none"
      target-height="128.16943"
      target-width="84.37485"
      target-x="462.12515"
      target-y="491.55"
    />
  </g>
</svg>
