<svg
  t="1774716133971"
  class="icon"
  viewBox="0 0 1024 1024"
  version="1.1"
  xmlns="http://www.w3.org/2000/svg"
  p-id="1289"
  width="256"
  height="256"
>
  <path
    d="M920.02228148 174.97505185H344.15502222l-9.10222222-24.63668148c-10.31585185-28.27757037-37.25842963-46.96746667-67.35644445-46.96746667h-165.05362963c-39.56432592 0-71.72551111 32.03982222-71.7255111 71.72551112v731.21185185h960.58785185V246.70056297c0.24272592-39.68568889-31.7970963-71.72551111-71.48278519-71.72551112z"
    fill="#ED9520"
    p-id="1290"
  ></path>
  <path
    d="M102.88545185 490.39739259c-7.88859259 0-14.32082963-6.43223703-14.32082963-14.32082962V174.97505185c0-7.88859259 6.43223703-14.32082963 14.32082963-14.32082963h93.32811852c7.88859259 0 14.32082963 6.43223703 14.32082963 14.32082963 0 7.88859259-6.43223703 14.32082963-14.32082963 14.32082963h-79.00728889v286.78068149c0 7.88859259-6.43223703 14.32082963-14.32082963 14.32082962z"
    fill="#FFFFFF"
    p-id="1291"
  ></path>
  <path
    d="M267.69635555 174.97505185m-14.32082963 0a14.32082963 14.32082963 0 1 0 28.64165926 0 14.32082963 14.32082963 0 1 0-28.64165926 0Z"
    fill="#FFFFFF"
    p-id="1292"
  ></path>
  <path
    d="M920.02228148 174.97505185h-71.72551111c39.56432592 0 71.72551111 32.03982222 71.72551111 71.72551112v587.88219258H31.15994075v71.72551112h960.58785184V246.70056297c0-39.68568889-32.03982222-71.72551111-71.72551111-71.72551112z"
    fill="#D1791A"
    p-id="1293"
  ></path>
  <path
    d="M920.02228148 153.49380741H359.20402963l-3.88361481-10.55857778c-13.47128889-36.53025185-48.54518518-61.04557037-87.5026963-61.04557038h-165.05362963c-51.33653333 0-93.20675555 41.74885925-93.20675556 93.20675557v731.21185185c0 11.89357037 9.58767408 21.48124445 21.48124445 21.48124444h960.58785185c11.89357037 0 21.48124445-9.58767408 21.48124445-21.48124444V246.70056297c0.12136297-51.4578963-41.6274963-93.20675555-93.0853926-93.20675556z m0 42.96248889c27.67075555 0 50.1229037 22.57351111 50.1229037 50.1229037v64.92918518c-14.56355555-9.34494815-31.67573333-14.80628148-50.1229037-14.80628148H446.82808889c-20.99579259 0-39.92841482-13.22856297-47.08882964-32.88936295L374.98121482 196.4562963h545.04106666zM52.64118518 884.70565925v-86.04634073h595.04260741c11.89357037 0 21.48124445-9.58767408 21.48124444-21.48124444s-9.58767408-21.48124445-21.48124444-21.48124445H52.64118518V174.97505185c0-27.67075555 22.57351111-50.1229037 50.12290371-50.1229037h165.05362963c20.99579259 0 39.92841482 13.22856297 47.08882963 32.88936296l44.41884444 121.12023704c13.47128889 36.53025185 48.54518518 61.04557037 87.5026963 61.04557037h473.19419259c27.67075555 0 50.1229037 22.57351111 50.1229037 50.1229037v365.66660741H791.01345185c-11.89357037 0-21.48124445 9.58767408-21.48124444 21.48124445s9.58767408 21.48124445 21.48124444 21.48124444h179.2530963v86.04634073H52.64118518z"
    fill="#2D3742"
    p-id="1294"
  ></path>
</svg>
