<svg
  t="1774575182272"
  class="icon"
  viewBox="0 0 1024 1024"
  version="1.1"
  xmlns="http://www.w3.org/2000/svg"
  p-id="11380"
  width="256"
  height="256"
>
  <path
    d="M0 0m315.076923 0l393.846154 0q315.076923 0 315.076923 315.076923l0 393.846154q0 315.076923-315.076923 315.076923l-393.846154 0q-315.076923 0-315.076923-315.076923l0-393.846154q0-315.076923 315.076923-315.076923Z"
    fill="#fbbf24"
    p-id="11381"
  ></path>
  <path
    d="M734.995692 287.625846l-0.393846 0.393846-185.895384 154.899693a1.536 1.536 0 0 0-0.433231 1.063384v340.598154c0.315077 19.692308-9.649231 33.201231-18.471385 38.478769-36.233846 21.740308-133.789538-50.491077-133.789538-83.88923v-296.684308a1.220923 1.220923 0 0 0-0.433231-0.866462l-0.157539-0.118154-184.635076-154.269538C180.145231 247.611077 201.846154 195.899077 260.529231 196.923077h424.684307C731.766154 196.923077 774.695385 246.941538 734.916923 287.625846h0.039385z"
    fill="#FFFFFF"
    p-id="11382"
  ></path>
  <path
    d="M640.315077 741.848615c0.078769 22.134154 16.541538 40.172308 36.627692 40.172308h113.703385c9.688615 0 19.140923-4.332308 26.072615-12.051692 10.161231-11.500308 13.075692-28.593231 7.561846-43.441231-5.592615-15.163077-18.904615-25.009231-33.910153-25.048615h-113.467077c-20.164923 0-36.588308 18.116923-36.588308 40.36923zM641.575385 614.951385c0 21.267692 15.084308 38.912 34.855384 40.211692l114.018462 0.039385h0.315077a35.052308 35.052308 0 0 0 26.03323-12.130462c10.161231-11.539692 13.036308-28.593231 7.483077-43.480615-5.671385-15.123692-18.983385-24.930462-33.910153-24.930462l-114.491077 0.039385c-19.298462 1.339077-34.343385 18.983385-34.343385 40.251077h0.039385zM630.153846 472.733538a39.148308 39.148308 0 0 0 38.636308 39.266462h120.004923a38.203077 38.203077 0 0 0 27.490461-11.815385c10.633846-11.303385 13.705846-27.963077 7.876924-42.456615a38.596923 38.596923 0 0 0-35.84-24.497231H668.750769c-21.228308 0-38.557538 17.723077-38.557538 39.502769z"
    fill="#FFFFFF"
    opacity=".8"
    p-id="11383"
  ></path>
</svg>
