<svg
  t="1776872045757"
  class="icon"
  viewBox="0 0 1024 1024"
  version="1.1"
  xmlns="http://www.w3.org/2000/svg"
  p-id="2361"
  width="200"
  height="200"
>
  <path
    d="M32 32m87.27272719 0l785.45454562 0q87.27272719 0 87.27272719 87.27272719l0 785.45454562q0 87.27272719-87.27272719 87.27272719l-785.45454562 0q-87.27272719 0-87.27272719-87.27272719l0-785.45454562q0-87.27272719 87.27272719-87.27272719Z"
    fill="#0a2ba2"
    p-id="2362"
  ></path>
  <path
    d="M190.53554954 751.64021797l123.52719469-181.56958515a19.20624109 19.20624109 0 0 1 29.360128-2.89505764l81.62652251 79.98834216 179.12643706-280.7500454a19.20624109 19.20624109 0 0 1 32.84832043 0.73435637l222.56643461 385.7065016a19.20624109 19.20624109 0 0 1-16.65011623 28.80936103H206.43718637A19.20624109 19.20624109 0 0 1 190.53554954 751.65433978z"
    fill="#fde988"
    p-id="2363"
  ></path>
  <path
    d="M324.37197695 340.51369157m-96.8361708 0a96.83616958 96.83616958 0 1 0 193.67234036 0 96.83616958 96.83616958 0 1 0-193.67234036 0Z"
    fill="#fde988"
    p-id="2364"
  ></path>
</svg>
