<svg
  t="1775192163032"
  class="icon"
  viewBox="0 0 1024 1024"
  version="1.1"
  xmlns="http://www.w3.org/2000/svg"
  p-id="3479"
  width="256"
  height="256"
>
  <path
    d="M771.793 940.563H265.48c-104.296 0-189.63-85.333-189.63-189.63v-53.096c0-104.296 85.334-189.63 189.63-189.63H773.69c104.296 0 189.63 85.334 189.63 189.63v53.096c-1.897 104.297-87.23 189.63-191.526 189.63z"
    fill="#FFFFFF"
    p-id="3480"
  ></path>
  <path
    d="M514.0224 14.41173333h269.02186667c48.544 0 91.02186667 16.18133333 131.47626666 44.50026667 40.4544 28.31786667 68.77226667 66.7488 84.9536 113.27146667 8.09173333 24.27306667 14.15893333 50.56853333 14.15893334 76.864 0 175.97546667 2.02346667 353.9744 0 529.952 0 82.93013333-40.45333333 147.6576-109.22666667 194.18026666-40.45333333 26.2944-84.9536 36.40853333-131.47626667 36.40853334H261.184c-99.11253333 0-171.93066667-46.52266667-216.42986667-133.49973334C28.57173333 845.74933333 20.48 811.36213333 20.48 776.976v-529.952c0-70.79466667 30.34026667-129.45386667 82.9312-175.97653333 26.29546667-22.2496 56.63573333-38.432 91.02186667-46.5216 18.2048-4.04586667 38.432-8.09173333 56.6368-8.09173334 84.9536-2.0224 173.95306667-2.0224 262.95253333-2.0224zM948.90666667 744.61226667c0-109.22666667-86.976-202.272-202.272-202.272-113.27146667 0-202.272 91.02293333-202.272 202.272s91.02293333 202.272 202.272 202.272c111.25013333 2.0224 204.2944-91.02293333 202.272-202.272z m-667.49653334-202.272c-113.27146667 0-198.22613333 91.02293333-202.272 192.15893333-6.0672 121.36213333 93.04533333 212.384 202.272 212.384s202.272-86.976 202.272-202.27093333c0-111.24906667-88.99946667-202.272-202.272-202.272z m0 0"
    fill="#000000"
    p-id="3481"
  ></path>
</svg>
