<svg
  t="1774852639581"
  class="icon"
  viewBox="0 0 1191 1024"
  version="1.1"
  xmlns="http://www.w3.org/2000/svg"
  p-id="2051"
  width="256"
  height="256"
>
  <path
    d="M95.125 686.252h-78.51a16.615 16.615 0 0 1 0-33.23h78.51a16.615 16.615 0 0 1 0 33.23z"
    fill="#50FBFF"
    p-id="2052"
  ></path>
  <path
    d="M55.877 725.5a16.587 16.587 0 0 1-16.615-16.601v-78.467a16.615 16.615 0 1 1 33.216 0v78.51a16.587 16.587 0 0 1-16.6 16.558z"
    fill="#50FBFF"
    p-id="2053"
  ></path>
  <path
    d="M1056.57 807.341a29.583 29.583 0 1 0 59.166 0 29.583 29.583 0 1 0-59.166 0zM990.138 918.995a17.592 17.592 0 1 0 35.183 0 17.592 17.592 0 1 0-35.183 0z"
    fill="#FE7E00"
    p-id="2054"
  ></path>
  <path
    d="M1062.113 612.553a64.652 64.652 0 1 0 129.303 0 64.652 64.652 0 1 0-129.303 0z"
    fill="#FEDF1D"
    p-id="2055"
  ></path>
  <path
    d="M200.963 548.993a441.805 441.805 0 1 0 883.61 0 441.805 441.805 0 1 0-883.61 0z"
    fill="#FEDB03"
    p-id="2056"
  ></path>
  <path
    d="M864.18 125.914a476.601 476.601 0 0 1 98.644 290.961c0 264.423-214.362 478.784-478.784 478.784a476.572 476.572 0 0 1-283.077-92.698c87.5 114.153 225.19 187.837 380.14 187.837 264.437 0 478.799-214.361 478.799-478.798 0-158.498-77.074-298.946-195.722-386.086z"
    fill="#FC8704"
    p-id="2057"
  ></path>
  <path
    d="M103.411 578.447A33.216 33.216 0 0 1 70.31 547.5a528.638 528.638 0 0 1-1.22-35.5 515.418 515.418 0 0 1 4.896-71.013 33.216 33.216 0 0 1 65.8 9.147A450.134 450.134 0 0 0 135.478 512q0 15.624 1.049 30.947a33.216 33.216 0 0 1-30.775 35.428c-0.804 0.043-1.566 0.072-2.341 0.072z"
    fill="#27233A"
    p-id="2058"
  ></path>
  <path
    d="M581.09 1024A512.172 512.172 0 0 1 96.948 678.942a33.216 33.216 0 0 1 62.799-21.67 445.783 445.783 0 0 0 421.341 300.296c245.696 0 445.568-199.886 445.568-445.568S826.8 66.447 581.089 66.447a446.286 446.286 0 0 0-389.604 229.167 33.216 33.216 0 1 1-58.046-32.312A512.747 512.747 0 0 1 581.09 0c282.316 0 512 229.77 512 512s-229.67 512-512 512z"
    fill="#27233A"
    p-id="2059"
  ></path>
  <path
    d="M799.127 550.214a33.173 33.173 0 0 1-23.494-9.722L581.089 345.934 386.574 540.492a33.22 33.22 0 0 1-46.974-46.989l218.024-218.037c12.45-12.45 34.465-12.45 46.973 0l218.01 218.037a33.216 33.216 0 0 1-23.48 56.71z"
    fill="#27233A"
    p-id="2060"
  ></path>
  <path
    d="M581.09 758.242a33.216 33.216 0 0 1-33.217-33.216V298.96a33.23 33.23 0 1 1 66.447 0v426.094a33.216 33.216 0 0 1-33.23 33.188z"
    fill="#27233A"
    p-id="2061"
  ></path>
</svg>
